<?xml version="1.0" encoding="utf-8"?>
<!-- Generator: Adobe Illustrator 18.0.0, SVG Export Plug-In . SVG Version: 6.00 Build 0)  -->
<!DOCTYPE svg PUBLIC "-//W3C//DTD SVG 1.1//EN" "http://www.w3.org/Graphics/SVG/1.1/DTD/svg11.dtd">
<svg version="1.1" id="Layer_1" xmlns="http://www.w3.org/2000/svg" xmlns:xlink="http://www.w3.org/1999/xlink" x="0px" y="0px"
	 viewBox="85.9 287.7 509.4 272" enable-background="new 85.9 287.7 509.4 272" xml:space="preserve">
<path fill="#F7F0E7" d="M155.4,414.4c0,0,8.6,1.5,7.3,21.8c0,0-12.7,74.7-3.5,89.5c0,0,6.6,19.8,21.3,9.1c0,0,3.3-4.7,0.9-6h-10.2
	c0,0-1.3-8.7,4.8-8.7l86.3,0.5c0,0-4.1-22.3,3.3-65.3c0,0,9.5-34.4-7-40.6L155.4,414.4z"/>
<path fill="#FCF9F5" d="M175.9,423.6c0,0,5.7,6.9-4.6,64.7c0,0-2.9,25.5,0.7,34.1c0,0,2.1-1.9,7.4-1.1l71.3-0.7
	c0,0-2.7-20.1,2.1-48.8c0,0,8-31.5,1.9-48.2H175.9z"/>
<path fill="#D9D2CA" d="M152.7,435.1c0,0,3.9-4.1,2.7-8.9h-9.9c0,0-0.6-5.6,5.3-5.6h10.6c0,0-1.8-7.9-13-6.2c0,0-10.5,3.3-5.6,16
	C142.8,430.5,144.1,435.9,152.7,435.1z"/>
<path fill="#D9D2CA" d="M171.4,527.8h10.2c0,0,0.8-5.3-5.8-6.5C175.8,521.3,171.1,521,171.4,527.8z"/>
<path fill="#ADA49A" d="M145.7,426.7h9.8c0,0-0.5-6-6-6C149.5,420.6,146,420,145.7,426.7z"/>
<path fill="#B7ADA1" d="M152.7,435.1c6.9-9.5-1.2-14.4-1.2-14.4h9.6c0,0,3.1,6.9,0.5,15l-8.4-0.4L152.7,435.1z"/>
<path fill="#F7F0E7" d="M178.3,521.3c0,0,9.5,9.2-1.8,16.6h101.7c0,0,8.2-0.5,6.9-10.2c0,0-1.1-8-7.3-7.6L178.3,521.3z"/>
<path opacity="0.44" fill="#ADA49A" enable-background="new    " d="M154.9,426.8c0.2,0.1,0.4,0.2,0.5,0.2c1.2,0.8,0.6,2.7,0.6,2.7
	h-9.2c-2.1-0.3-2.1-3.1-2.1-3.1"/>
<path fill="#A59C92" d="M158.1,420.6c0,0,3.7,7.3,1.1,14.8h3c0,0,2.4-10.1-2-14.8H158.1z"/>
<path fill="#E2CCAD" d="M175.4,373.7c0,0-12.6-8.3-16.3,2.3c0,0,4.4,16.9,14.6,11.5l4.4-4.2c0,0,5.7,5.6,17.5,8.6v5.6
	c0,0,1.5,4.3,9.2,4.3c0,0,6.9-0.5,6.6-4.5v-4c0,0,26.4-4.4,25.1-33.1c0,0-9.3-22.5-11.2-37.8c0,0-19.7,5.5-36.3,2.5
	c0,0-22.1,1.6-20.5,22.1c0,0,0.5,17.3,8.6,25.8L175.4,373.7z"/>
<path fill="#E2CCAD" d="M153.1,438.7c0,0-4.2,12.9-0.9,18.5c0,0,4.4,5.5,9.5,6.1h6c0,0,3.8-2.5,1.5-8c0,0,2.7-3.3,0.8-9.3
	c0,0,3.6-3.6,1.5-6.7l-9.8-3.1L153.1,438.7z"/>
<path fill="#E2CCAD" d="M262.1,433.5c0,0-1.8,2.7,0,5.8c0,0-2.4,3.9,0,8c0,0-2.8,7.4,1.7,8c0,0,12,1.8,7.9-9.1c0,0,1.5-3.7,0.1-7.6
	C271.7,438.6,274.9,427.1,262.1,433.5z"/>
<path opacity="0.67" fill="#D9D2CA" enable-background="new    " d="M170.3,527.2c0,0-1,4.7,2.4,4.9h4.9c0,0,0.6,5.8-5.6,5.1
	l5.6,0.8H279c0,0,3.4,0.3,4.8-3.6H180.4c0,0,2.4-1.6,1.2-6.3L170.3,527.2z"/>
<path fill="#8E755F" d="M160,308.1c0,0-4.6-1.2-5.4-5.6c0,0-4.8,3.9-2.2,10.5c0,0-8.9,4-8.7,9.8c0,0,6.2-0.1,7.3,2.5
	c0,0-3.4,23,2.1,29.2l1.5-1.9c0,0,5.3,15.4,9.5,18.2c0,0,6.9-0.6,11.8,2.7c0,0,2.7-0.1,1.5-1.7c0,0-16-17.6-5.9-38.8
	c0,0,6.4-9.4,19.5-8c0,0,43.7,5.6,52.8-21.8c0,0,0.7-4.7,0-5.7c0,0-9.3,5.6-20.8-0.4c0,0-4.7-1.5-7.6,0c0,0,0.6-6,5.3-7.8
	c0,0-19.1-4.4-32.4,9.3c0,0-2.1-1.3-0.8-6.2C187.1,292.5,167.3,297,160,308.1z"/>
<path fill="#8E755F" d="M186.3,353.4c0,0,5.3-6.6,14.9-5.6v4.2C201.2,352,194.2,349.9,186.3,353.4z"/>
<path fill="#8E755F" d="M219.6,345.1l0.8,4.4c0,0,7.7-2.6,11.4-1.7l-1.2-2.7C230.5,345.1,224,343.5,219.6,345.1z"/>
<path fill="#D1BBA3" d="M175.4,374.6c0,0,2.4,2.4,4.7-1.5c0,0,1.1-1.1-0.4-2.7c0,0-10.9-16-6.4-31.5c0,0,4.7-13.2,17.9-10.4
	c0,0,25.3,3.6,34.5-4.5v-1.9c0,0-20.9,6.3-37.6,2.5c0,0-21.8,0.5-20,24.6c0,0,4,18.7,8.7,22.5l0.2,1.7L175.4,374.6z"/>
<path fill="#D8C2A7" d="M201.5,352c-8.2-2.3-16.3,1.7-16.3,1.7s-0.4,3.4,2.6,2.1c0,0,7.9-2.7,13.7-1.5c0,0,0.9,0,0.8-2.1L201.5,352z
	"/>
<path fill="#D8C2A7" d="M219.3,349.7c0,0-0.3,2.4,2.3,1.7c0,0,7.3-2.3,10.8-1.7l-1.5-1.9L219.3,349.7z"/>
<path fill="#D8C2A7" d="M215,344.1c0,0,1.1,7.9,2.5,9.3c0,0,9.7,3.1,6.1,14.9c0,0-4.4,11.1-13.8,3.1c0,0,9.2,5.6,11.5-7.8
	c0,0,1.6-5.3-5.5-8.2c0,0-1.9-4.2-1.6-9.6L215,344.1z"/>
<path fill="#D1BBA3" d="M195.8,394.1c0,0,9.8,3,15.2,0.9v-1.6l-15.5-1.5L195.8,394.1z"/>
<path fill="#78BEC6" d="M143.2,458.7c-18.2-5.4-1.1-28.2-1.1-28.2s2.2,5.6,11.1,4.7l8.9,1.1c0,0-10,0.9-10.4,4.2
	c0,0-2.7,18.2,3.7,20C155.5,460.5,148.6,460.2,143.2,458.7z"/>
<path fill="#78BEC6" d="M155.4,414.4H235c0,0-8.9-12.4-23.7-17.1c0,0-6.5,10.2-16.6,0C194.7,397.4,171.8,397.6,155.4,414.4z"/>
<path opacity="0.63" fill="#69ACAF" enable-background="new    " d="M141,434c0,0,2.3,6,11.3,5.3l8.6-3.3l-10.4-0.6
	c0,0-5.3,0.2-7.6-5L141,434z"/>
<polygon opacity="0.63" fill="#69ACAF" enable-background="new    " points="235.1,414.2 157,414.2 159.3,410.9 232.9,410.9 "/>
<path fill="#D1BBA3" d="M159,461.4c-6.9-4.4-5-22.3-5-22.3s-5,7.9-1.2,18.7l6.2,4.6L159,461.4z"/>
<path opacity="0.84" fill="#826B5A" enable-background="new    " d="M173.8,369.3c-13-4.4-15.3-21.5-15.3-21.5
	c-1-1.5-2.7,0.5-2.7,0.5c-3.9-8.9-0.8-24.6-0.8-24.6c-0.4-2.1-2.8-3.3-2.8-3.3c1-4,4.7-5,4.7-5c-2.4-2.4-1.1-8.8-1.1-8.8l-0.9-3.8
	c0,0-5.8,2.8-2.2,11c0,0-8.3,2.7-8.6,9.4c0,0,4.5-0.9,6.8,1.7c0,0-4,25.3,2.2,29.9l1.8-1.7c0,0,2.8,13.2,9.2,17.3
	c0,0,6.6-0.2,11.8,3.3c0,0,1.4,0.2,1.5-1.1L173.8,369.3z"/>
<path fill="#F7F0E7" d="M266.7,393.9l8.6,14.2c0,0,7-6.9,16.9-3.7c0,0,7.1,4.1,10.1-1.2l-8.7-14c0,0-4.3,4.1-12.3,0
	C281.3,389.2,272.8,385.6,266.7,393.9z"/>
<path opacity="0.18" fill="#ADA49A" enable-background="new    " d="M284.5,391.2l6.9,12.2c0,0,6.7,5.1,11,0.3l-8.9-14.4
	c0,0-2.4,4-8.9,1.6"/>
<path fill="#F7F0E7" d="M261,507.7c0,0-1.5,9.2,1.2,13l17.4,0.6c0,0,9.3,2.6,3.8,12.8c0,0,0.2,5.8-10.6,3.9l-98.6,0.4
	c0,0-13.4,1.8-17.9-20.8l-6.9,3.9V518c0,0-2.7,3-6-1.5c0,0-2.6-1.2-6.2,1.1l-2.6,8.9l-15.3-1.8c0,0-3.4,5.3-1.5,8.9l-12.6,7.5
	c0,0,4.4,9.8,7.7,10.8l7.3-3.4v6h7.3l1.1,3.7l14.7-3.1l2.1,1.9l9.8-6.4l2.6,3.1c0,0,9-1.8,12.1-5.3l5.1,1.6l3.1-2.1l1.1,4
	c0,0,8.6,0.8,13.7-0.8l15.6,2.5l3-2.5l1.2,1.3l14-6.9l3.9,3.4l9.7-1l4.9,4.4l11.5-7.4l5.8,7.2c0,0,2.7-6.6,13.2-4.3l8.5,7.9
	c0,0,12.1,2.2,10.5-8.1l12.8,2.4l1-3.5l6.7-0.2c0,0,0.8-5.7-1.6-9.8l-0.4-9.8l4.7-0.3c0,0,2.8-6.6-2.6-9.2l-19.6,1.5l-15.7-8.9
	L278,505L261,507.7z"/>
<path fill="#F7F0E7" d="M266.7,477.3l6.4,13.5c0,0,14-8.7,25-8.9c0,0-0.6-9.8-7.2-14.1C291,467.7,270.9,471.6,266.7,477.3z"/>
<path fill="#F7F0E7" d="M111.5,486.3v14c0,0,15.2,6,29.4-7l-0.8-14.1C140.1,479.2,125.6,490.7,111.5,486.3z"/>
<path fill="#F7F0E7" d="M95,428.8l-7.6,11.2c0,0,12.3-1.4,10.6,4.3c0,0-7.9,7.9,8.6,8l7.4-10.5c0,0-12.8,0.7-9.4-6.9
	C104.5,434.9,113.4,429.6,95,428.8z"/>
<path fill="#F7F0E7" d="M109,363.1l-1.5,12.2c0,0,13.2-12.5,26.1,3.9l1.1-12C134.8,367.3,124.7,350.2,109,363.1z"/>
<path opacity="0.23" fill="#ADA49A" enable-background="new    " d="M106.9,452.4c-17.5,1.3-8.8-8.9-8.8-8.9l6.4-6.7
	c0,0-3.3,4.2,9.5,5.4L106.9,452.4z"/>
<polygon opacity="0.23" fill="#ADA49A" enable-background="new    " points="111.5,490.8 126.8,497.9 140.2,485.1 140.2,481.8 
	126,494.5 111.8,488.8 "/>
<g opacity="0.23">
	<path fill="#ADA49A" d="M149.6,521.6v-3.2l-5-0.4c0.2,2.4-1.1,5.9-1.1,5.9h-8.1l-0.5,2.5l6.7,0.1L149.6,521.6z"/>
	<path fill="#ADA49A" d="M131.6,544.7l1.3-1.1c0,0-2.8-1.6-2.7-1.8c0.2-0.2,7.8-9.7,7.8-9.7l-0.8-2.7l2.9-2.3h-3.5
		c-2.4,0.5-0.7,5-0.7,5l-6.8,7.6c-1.9,1.2-1.1,1.8-1.1,1.8l0.8,1.5l-4.7-0.2l0.4-5.4c4.5,0.6,8.9-2.7,8.9-2.7l-11.7,0.3l0.5,9.5
		L131.6,544.7z"/>
	<path fill="#ADA49A" d="M120.9,538.3l-2.1,4l-12.6-0.8l1.5,3.1c0,0,7.3,0.5,12-0.7c0,0,1.8-1.8,2.2-3.9L120.9,538.3z"/>
	<polygon fill="#ADA49A" points="121,551.7 121.1,551.3 121,551.4 	"/>
	<polygon fill="#ADA49A" points="134.5,544.8 126.3,545.1 123.6,546.4 121.5,548.6 121.1,551.3 128.2,546.8 121.4,554.1 124,554.1 
		131.5,546.8 134.8,546.6 	"/>
	<path fill="#ADA49A" d="M150.6,546l-13.2,1l-2.1-2.2l-0.5,5c0,0,4.3,2.5,6.7,6l3.7-0.8l-7.7-6.5c0,0,9.2-0.9,14,0
		c0,0,1.5,0.5,2-5.3l-1-1.6L150.6,546z"/>
	<path fill="#ADA49A" d="M138.4,532.5l-0.4,1.6c0,0,1.2,2.7,4.2,3.4c0,0,3.1,1.1,3.9,3.5l1.8-1.1c0,0,0.3-4-5.8-5L138.4,532.5z"/>
	<path fill="#ADA49A" d="M159.8,532.1l1.9-0.8c-3.2-2.5-4.7-13.4-4.7-13.4l-1.5,0.8c0,0,0.1,8.6,4,13.3H159.8L159.8,532.1z"/>
	<path fill="#ADA49A" d="M153.4,537.9c4.5,0.2,6.9,3.1,6.9,3.1c0.9,5.3-1.7,12.8-1.7,12.8l2.1,0.1c2.1-3.4,2.1-14,2.1-14
		c-1.5-1.5-4.1-2.4-4.1-2.4l4.1-3.7v-1.2l-2.3-0.4L153.4,537.9z"/>
	<path fill="#ADA49A" d="M175.1,538.4c-6.3,0.3-9.6-1.9-9.6-1.9l5.3,11l-0.5,1.3l2.7,0.2c1.4-3.4-2.7-7.8-2.7-7.8h6.3L175.1,538.4z"
		/>
	<path fill="#ADA49A" d="M205.7,539.9l1.5-1.7l-15.7-0.2l0.1,0.2h-15.5l0.4,2.4l9.4-0.5l1.2,0.8c-0.5,4.4-7.1,11.3-7.1,11.3l1.9-0.2
		c0,0,5.2-3.8,7.6-10c0.9-2.3,2.7-1.6,2.7-1.6v-0.1l2.9,7l2.3-2.1l-2.3-4.7L205.7,539.9z"/>
	<path fill="#ADA49A" d="M209.6,546.3l-2.4-3.3l0.5-1.5l5.3-2.7l-5-0.6l-3.9,3.3c0,0,0.2,2.4,3.2,5c0,0-1.7,1.9,1.5,6.1
		c0.1,0.2,0.2,0.2,0.3,0.4l1.4-2.1C210.5,551,207.4,549.8,209.6,546.3z"/>
	<polygon fill="#ADA49A" points="213.6,538.6 211.9,539.9 219.9,540.5 224.8,546.3 226.7,545.3 221.3,538.6 	"/>
	<polygon fill="#ADA49A" points="231.4,538.6 221.6,538.6 224.3,540.7 229.6,540.7 229.6,543.5 239.7,548.4 241.2,547.4 
		230.9,542.5 	"/>
	<polygon fill="#ADA49A" points="247.8,539 234.5,538.6 238.1,542.8 	"/>
	<path fill="#ADA49A" d="M248.3,538.6l-1.7,1.7l7.4,0.4l-1.6-1.7l2.9,0.2l11.1,2c-4.6,4.6-3.7,11.1-3.7,11.1l3-3.4
		c-0.7-4.2,3.4-7.9,3.4-7.9l4.2-0.3l-1.1-2.1L248.3,538.6L248.3,538.6z"/>
	<path fill="#ADA49A" d="M290.4,549.9c0,0-9.5-6.9-14-12l-3.9,0.4l1.5,2.4c0.4-0.2,10.2,9,16.4,10.8c0,0,1.5,0.5,2.1-0.7
		c0,0,1.2-1.8,2.4-1.4v-1.1l-3.2-1.1L290.4,549.9z"/>
	<path fill="#ADA49A" d="M298.8,537.9l0.5,1.5c0,0-6.8,6.3-6.8,7.5h2.6c0,0,3.1-4.4,6.7-5.6l-0.8-5L298.8,537.9z"/>
	<path fill="#ADA49A" d="M285.4,540.2c3.8-0.7,12.4,0.5,12.4,0.5l0.9-2.1c-6-1.3-13.3-0.3-13.3-0.3l-1.1-3.7l-0.8,0.3l0.4,3.4
		C283.5,540.4,285.4,540.2,285.4,540.2z"/>
	<path fill="#ADA49A" d="M297.1,524.4c0,0-2.6,2.7-5.7,3.2c0,0-3.2,1.7-3.2,4.1l1.4,0.3c0,0,2.4-2.4,4.7-2.6c0,0,3.3-0.5,5-2.7
		L297.1,524.4z"/>
	<path fill="#ADA49A" d="M278.6,507.6l-1.1-1.4l-8.1,8.2c0,0-5.9-2.1-7.9-4.1v2.5c0,0,4.2,3.6,7.9,3.6
		C269.3,516.4,276.8,509.5,278.6,507.6z"/>
	<path fill="#ADA49A" d="M282,511.3l-1.9-1.2l-0.8,8.1l-3.3,2.1c8.4,0.8,9.7,11.1,9.7,11.1c2.8-8.6-4.1-12.5-4.1-12.5
		C282.9,516.2,282,511.3,282,511.3z"/>
	<path fill="#ADA49A" d="M308.4,533l-6-6.5c3.7,2.5,11.5,1.7,11.5,1.7v-1.7l-11.5-0.2v0.2L300,524c2.1-3.4-0.7-4.6-0.7-4.6H299
		l-3.4-0.2l3.1,1.6l-1.1,3.6l7.2,7.7l-1.7,3.7l0.9,0.5C310.8,535.5,308.4,533,308.4,533z"/>
	<path fill="#ADA49A" d="M306.9,539.6l1.1-1.6l-2.4-0.9c0,0-1.1,2,0.4,3.1l7.8,6.5l1.6-0.6L306.9,539.6z"/>
	<path fill="#ADA49A" d="M284.5,479.9c0,0,5-9,8.4-10.2l-1.4-1.6c0,0-6,3.5-8.4,9.7l-16.3-1.5l1.1,2.1
		C267.9,478.5,277.2,480.9,284.5,479.9z"/>
</g>
<path fill="#DD5050" d="M183.1,431.5c1.5,0,2.7-1.2,2.7-2.7c0-1.5-1.2-2.7-2.7-2.7c-1.5,0-2.7,1.2-2.7,2.7
	C180.4,430.4,181.6,431.5,183.1,431.5z"/>
<path fill="#EABB67" d="M190.5,431.5c1.5,0,2.7-1.2,2.7-2.7c0-1.5-1.2-2.7-2.7-2.7s-2.7,1.2-2.7,2.7
	C187.9,430.4,189,431.5,190.5,431.5z"/>
<path fill="#9ECE6F" d="M198,431.5c1.5,0,2.7-1.2,2.7-2.7c0-1.5-1.2-2.7-2.7-2.7s-2.7,1.2-2.7,2.7
	C195.3,430.4,196.4,431.5,198,431.5z"/>
<path fill="#3A3A3A" d="M183,460.5h68.2c0.3-1.8,0.5-3.5,0.7-5.1h-68.2C183.5,456.9,183.3,458.6,183,460.5z"/>
<path fill="#3A3A3A" d="M184.6,444.4h68.2c0.1-1.9,0.1-3.6,0-5.1h-68.2C184.7,440.8,184.7,442.6,184.6,444.4z"/>
<path fill="#3A3A3A" d="M178.5,508.4h68.2c-0.1-1.6-0.2-3.4-0.2-5.1h-68.2C178.3,505.1,178.3,506.8,178.5,508.4z"/>
<path fill="#3A3A3A" d="M178.7,492.4h68.2c0.2-1.7,0.2-3.4,0.5-5.1h-68.2C178.9,489,178.8,490.8,178.7,492.4z"/>
<path fill="#3A3A3A" d="M180.4,476.4h68.2c0.2-1.7,0.5-3.4,0.8-5.1h-68.2C180.9,473.1,180.6,474.7,180.4,476.4z"/>
<path fill="#3A3A3A" d="M252.2,452.4c0.2-1.8,0.3-3.5,0.5-5.1h-68.2c-0.1,1.6-0.2,3.3-0.5,5.1H252.2z"/>
<path fill="#3A3A3A" d="M247.4,516.4v-0.8c-0.2-1.4-0.4-2.8-0.5-4.4h-68.2c0.2,1.8,0.4,3.6,0.6,5.1L247.4,516.4L247.4,516.4z"/>
<path fill="#3A3A3A" d="M246.5,500.4c0-1.6,0.1-3.4,0.2-5.1h-68.2c-0.1,1.8-0.2,3.5-0.2,5.1H246.5z"/>
<path fill="#3A3A3A" d="M249.8,468.4c0-0.2,0.1-0.4,0.1-0.6c0.3-1.6,0.5-3.1,0.8-4.6h-68.2c-0.2,1.5-0.5,3-0.8,4.6
	c0,0.2-0.1,0.4-0.1,0.6H249.8z"/>
<path fill="#3A3A3A" d="M247.6,484.4c0.2-1.7,0.4-3.4,0.6-5.1H180c-0.2,1.8-0.5,3.5-0.6,5.1H247.6z"/>
<path fill="#3A3A3A" d="M213.9,373.2c2.9,0.5,6.8-2.1,8.1-6.1c0.1-0.1,0.1-0.2,0.1-0.2c2.7-8.2-4.7-11.6-5.8-12
	c-2.1-4.8-0.5-10.9-1.3-10.7c0.1,0-2.9,4.7,0,11.6c0,0.2,0.1,0.3,0.2,0.5c0,0.1,0,0.1,0.1,0.1l0,0c0.1,0.1,0.2,0.2,0.3,0.2
	c0.3,0.1,7.1,2.7,4.8,9.8c0,0.1,0,0.1,0,0.2c-2.7,8.2-10.9,4.6-10.5,5C209.8,371.5,211.1,372.7,213.9,373.2z"/>
<path fill="#3A3A3A" d="M200,362c-0.9,0-1.6-0.7-1.6-1.6c0-0.4,0.2-0.8,0.5-1.1h-0.1c-1.3,0-2.4,1.1-2.4,2.4c0,1.3,1.1,2.4,2.4,2.4
	s2.4-1.1,2.4-2.4c0-0.1,0-0.2,0-0.2C200.9,361.9,200.4,362,200,362z"/>
<path fill="#3A3A3A" d="M226.4,358.2c1.1,0,2-0.9,2-2c0-0.1,0-0.1,0-0.2c-0.2,0.2-0.5,0.4-0.9,0.4c-0.7,0-1.3-0.6-1.3-1.3
	c0-0.3,0.2-0.6,0.3-0.9c0,0,0,0-0.1,0c-1.1,0-2,0.8-2,2C224.5,357.4,225.4,358.2,226.4,358.2z"/>
<path fill="#3A3A3A" d="M185.8,354.6c0.2,0,0.2,0,0.3-0.1c0.1,0,4-2.3,10-2.3c1.8,0,3.6,0.2,5.3,0.6c0.2,0.1,0.4,0,0.5-0.2
	s0.2-0.3,0.2-0.5l-0.1-4.6c0-0.4-0.3-0.6-0.6-0.7c-13.2-0.4-16.3,6.5-16.3,6.7c-0.1,0.2-0.1,0.5,0.2,0.8
	C185.5,354.6,185.7,354.6,185.8,354.6z M200.5,348.3c0.2,0,0.2,0,0.4,0l0.1,3.1c-1.6-0.3-3.2-0.5-4.8-0.5c-3.6,0-6.4,0.8-8.3,1.4
	C189.6,350.6,193.2,348.3,200.5,348.3z"/>
<path fill="#3A3A3A" d="M211.2,381.6c-2.5-0.1-4.3-0.8-4.6-0.5c-0.4,0.3,1.6,2.1,4.4,2.1c2.7,0.2,4.9-0.6,4.8-1.1
	C215.9,381.7,213.8,381.7,211.2,381.6z"/>
<path fill="#3A3A3A" d="M165.7,375.2c-0.2,0-0.4,0-0.5,0.2c-0.9,0.7-1.4,1.8-1.3,3.2c0.1,1.3,0.6,2.6,1.5,3.7c0,0.1,0.1,0.1,0.2,0.1
	c1.5,1.8,3.5,2.1,3.5,1.7c0.1-0.5-1.3-1.1-2.4-2.6c0,0,0-0.1-0.1-0.1c-0.7-0.9-1.1-2-1.2-3c-0.1-0.8,0.2-1.5,0.7-1.9
	c0.1,0,0.1-0.1,0.1-0.2c0.1-0.1,0.2-0.1,0.3-0.2c-0.3,3.1,2.4,4.5,2.3,4.2c0.4-0.2-1.5-2.1-0.9-4.4c1.8,0.3,3.4,2.3,3.4,1.8
	C171.6,378.3,170.3,373.3,165.7,375.2z"/>
<path fill="#3A3A3A" d="M111.5,485.3c-0.2-0.1-0.5,0-0.8,0.2s-0.3,0.5-0.3,0.7v14.7c0,0.4,0.3,0.8,0.7,0.8c2.4,0.6,5,0.9,7.6,0.9
	l0,0c12.6,0,22.1-7.5,22.4-7.8c0.2-0.2,0.3-0.4,0.3-0.6c0.5-6.4,0-16,0-16c0-0.3-0.2-0.6-0.5-0.8c-0.3-0.2-0.6-0.2-0.9,0.1
	c-0.2,0.1-12.2,8.3-23.9,8.3C114.4,485.7,112.9,485.6,111.5,485.3z M112.1,489.5l7.9,3.4l-7.9,6.2V489.5z M118.6,500.8
	c-1.8,0-3.7-0.2-5.5-0.5l8.5-6.6l4.1,1.8c0.1,0.1,0.2,0.1,0.3,0.1c0.2,0,0.4-0.1,0.5-0.2l4.2-4l8.1,3
	C135.9,496.2,128.1,500.8,118.6,500.8z M139.6,493.1l-7.9-2.9l7.9-7.6C139.8,485.5,139.9,489.6,139.6,493.1z M139.7,480.5L125.8,494
	l-13.7-6v-0.8c1.3,0.2,2.6,0.3,4,0.3c10.1,0,20.1-5.6,23.6-7.8C139.6,480,139.7,480.3,139.7,480.5z"/>
<path fill="#3A3A3A" d="M106.6,453.6c0.3,0,0.5-0.2,0.7-0.4l8-11.1c0.2-0.3,0.2-0.6,0.1-0.9c-0.2-0.3-0.5-0.5-0.8-0.5
	c-6.6,0.1-8.9-1-9.7-1.9c-0.5-0.5-0.5-1.1-0.4-1.9l0,0l2.6-3.7c0.7-1,0.4-1.8,0.2-2.1c-1.4-2.5-9.9-2.5-12.4-2.4
	c-0.3,0-0.5,0.2-0.7,0.4l-8,11c-0.2,0.3-0.2,0.7-0.1,0.9c0.2,0.3,0.5,0.5,0.8,0.5c4.7-0.3,10,0.2,10.6,1.5c0.1,0.2,0,0.6-0.2,1
	l-0.2,0.4c-0.2,0.2-0.5,0.5-0.7,0.8c-0.1,0.1-2.4,2.4-1.5,4.7C95.8,452.2,99.6,453.4,106.6,453.6L106.6,453.6z M89.6,439.5
	c-0.4,0-0.8,0-1.1,0l6.7-9.3c4.7-0.1,9.8,0.5,10.5,1.5c0.1,0.1-0.1,0.3-0.1,0.3l-6.9,9.7C97.3,439.9,92.8,439.5,89.6,439.5z
	 M96.5,449.2c-0.5-1.2,1-2.8,1-2.8c0.3-0.3,0.6-0.6,0.8-0.9c0,0,0-0.1,0.1-0.1l0,0c0.1-0.2,0.2-0.2,0.2-0.4l4.3-6
	c0.2,0.3,0.3,0.7,0.6,0.9c1.4,1.6,4.4,2.5,9.3,2.6l-6.7,9.3C98.3,451.6,96.8,449.9,96.5,449.2z"/>
<path fill="#3A3A3A" d="M107,376.5c0.3,0.2,0.8,0.1,1-0.2c0.1-0.1,5-4.8,11.2-4.8c5.2,0,9.8,3.2,13.8,9.5c0.2,0.2,0.5,0.4,0.8,0.4
	c0.1,0,0.2,0,0.2,0c0.4-0.1,0.6-0.4,0.7-0.8l1.5-12.7c0-0.2,0-0.4-0.2-0.6c-4.4-6.9-9.5-10.4-15.3-10.4c-7,0-12.3,5.1-12.4,5.3
	c-0.2,0.2-0.2,0.3-0.2,0.5l-1.5,12.7C106.4,375.9,106.6,376.3,107,376.5z M109.7,363.5c1-0.9,5.5-4.6,11-4.6c5.1,0,9.7,3.1,13.6,9.3
	l-1.1,9.9c-4-5.6-8.7-8.4-14-8.4c-4.7,0-8.6,2.3-10.7,3.9L109.7,363.5z"/>
<path fill="#3A3A3A" d="M315.8,516.3c-0.2,0-14.5,2.1-22.1,1l-13.4-8.6c-0.1-0.1-0.2-0.1-0.2-0.1c-0.5-2.4-1.1-4-1.2-4.2
	c-0.2-0.5-0.7-0.7-1.1-0.5c-4.7,1.5-13.8,2.9-16.3,3.3c-0.5-11.5,0.8-26.2,3.9-43.7c0.5-2.6,0.9-5.1,1.3-7.5c1.7,0,3.1-0.3,4.1-0.8
	c3.9-2,2.3-7.3,1.8-8.9c1.6-3.4,0.5-6.9,0.2-7.9c0.9-3.5-1.1-6.4-1.1-6.6c-0.2-0.2-0.4-0.3-0.6-0.4c-0.1,0-1-0.2-2.3-0.2
	c-0.5-11.2-3.8-16.9-10.2-17.6h-22.8c-6.8-9.3-22-16.5-23.7-17.3V394c0-0.1,0-0.1,0-0.2c0.6,0,1-0.1,1.1-0.1
	c19.2-2.1,24.1-26.4,24.1-26.6c1.3-6.6,0-9.3-2.1-13.9l-0.5-1.1c-1.9-4.1-3.5-8.6-5-14.3c-1.5-5.5-2.4-10.2-3.2-15.7
	c4-1.6,7.9-3.8,11.1-6.8c0.3-0.3,8.2-7.4,7.2-18.5c0-0.3-0.2-0.6-0.5-0.8c-0.3-0.2-0.6-0.1-0.9,0.1c-0.1,0.1-7.5,5-16.9,1.5
	c-0.2-0.1-5.6-2.4-10.5-1.8c0.4-1.6,1.5-4.4,5.1-5.9c0.4-0.2,0.5-0.5,0.5-0.9c0-0.4-0.3-0.7-0.7-0.8c0.2-0.2-17-4.5-32.9,9.1
	c-0.2-1.2-0.2-3,0.7-4.7c0.2-0.3,0.2-0.7-0.1-0.9c-0.2-0.3-0.5-0.4-0.9-0.3c-0.8,0.2-20.5,4.1-27.4,15.8c-1.3-0.6-4-2.3-4.5-5.7
	c-0.1-0.3-0.3-0.6-0.6-0.7s-0.7,0-0.9,0.3c-0.2,0.2-4.7,5.5-2.3,11.8c-2.1,1-7.2,3.9-8.8,9.8c-0.1,0.3,0,0.6,0.2,0.8
	c0.2,0.2,0.5,0.3,0.8,0.3c0.1,0,3.4-0.5,6.4,1.1c-0.7,3.7-3.6,21.9,2.2,30.6c0.2,0.3,0.5,0.5,0.9,0.4c0.4-0.1,0.6-0.3,0.7-0.7
	c0.1-0.2,0.2-0.8,0.5-1.2c0.8,3.2,3.1,11.1,7.6,16.6c-1.8,0.9-2.9,2.3-3.3,4c-0.9,4.2,2.9,9,3.1,9.2c2.9,3.4,5.8,5,8.7,5
	c0.1,0,0.2,0,0.2,0c2.6-0.1,5.1-1.5,7.3-4.3c0.1-0.1,0.1-0.2,0.1-0.2s0.1-0.1,0.1-0.2c4.8,4.2,10.8,6.5,16.4,7.8v3.3
	c-4.5,0.7-27,4.7-39.5,18.1h-3.9c-0.2,0-4.7-0.2-7.8,2.9c-2,1.9-3,4.6-3,7.9c0,0.2,0,2.6,1,5.3c-1.9,2.8-12.4,19-3.6,27.3
	c0.2,0.2,5.1,4.5,15.4,4.5c0.7,0,1.5,0,2.2-0.1c0.1,0,0.2,0,0.2-0.1c0.8,0.6,1.5,1,1.6,1.1c0.4,0.2,0.8,0.4,1.1,0.6
	c-4.4,25.5-4.6,42.4-2.7,53.7l-5.3,3.4l0.1-2.4c0-0.2-0.1-0.5-0.3-0.7c-0.2-0.2-0.5-0.2-0.7-0.2l-0.7,0.1c-1.1,0.2-2.6,0.4-3.5,0
	c-0.2-0.1-0.2-0.1-0.3-0.4c-0.2-0.3-0.3-0.8-0.8-1.1c-0.8-0.6-2.2-0.5-3.7-0.3c-1,0.2-1.8,0.5-2.7,0.8c-0.3,0.2-0.7,0.2-1,0.4
	c-0.3,0.1-0.5,0.3-0.6,0.6c-0.1,0.3-2.4,7.9-2.6,8.7c-6.7-0.3-13.4-1.2-13.5-1.2c-0.3-0.1-0.6,0.1-0.8,0.3c-1.5,1.9-2.5,5.6-2.2,8.1
	c0,0.2,0.1,0.4,0.1,0.6c-1.7,1.1-7.8,4.9-12.4,6.9c-0.5,0.2-0.6,0.7-0.5,1.1c0.2,0.4,3.4,8.7,8.6,11.7c0.2,0.1,0.3,0.2,0.5,0.2
	c0.1,0,0.2,0,0.3-0.1c0.2-0.1,2.5-0.9,6-3.1c-0.4,1.5-0.7,3.4-0.5,5.2c0,0.2,0.2,0.5,0.4,0.6c0.2,0.2,0.5,0.2,0.7,0.2
	c0.1,0,2.8-0.5,6.3-0.5l0.8,3.1c0.1,0.4,0.5,0.7,0.8,0.7c0.1,0,0.1,0,0.2,0c0.1,0,9.5-1.8,15.1-3.1c0.3,0.5,0.6,1.1,0.8,1.8
	c0.1,0.2,0.3,0.5,0.5,0.5c0.1,0,0.2,0.1,0.3,0.1c0.2,0,0.3,0,0.5-0.1c0.3-0.2,6.8-3.7,10.6-7.2c0.4,1.1,0.8,2.1,1.1,3.1
	c0.2,0.4,0.5,0.6,0.8,0.6c0.1,0,0.2,0,0.2,0c0.3-0.1,6.7-1.8,10.8-5.3l6.9,1.8c0.1,0,0.2,0,0.2,0c0.3,0,0.6-0.2,0.8-0.5l0.6-1.2
	l0.8,2.8c0.1,0.3,0.4,0.6,0.8,0.6c0.2,0,1.8,0.2,4.2,0.2c2.4,0,5.6-0.2,8.6-1l16.2,2.6c0.1,0,0.1,0,0.2,0c0.2,0,0.5-0.1,0.6-0.3
	l1.9-2c0.1,0.1,0.2,0.2,0.3,0.2c0.3,0.2,0.5,0.5,0.8,0.6c0.2,0.2,0.4,0.2,0.5,0.2s0.3,0,0.4-0.1c4.9-2.5,12-6.2,14-7.1l2.7,3
	c0.2,0.2,0.4,0.3,0.7,0.3h0.1l8.9-0.8c0.1,0.2,0.2,0.2,0.2,0.3l4.7,3.2c0.2,0.1,0.3,0.2,0.5,0.2c0.2,0,0.3-0.1,0.5-0.2l10.9-6.6
	l5.3,7.5c0.2,0.2,0.5,0.4,0.8,0.4c0.1,0,0.1,0,0.2,0c0.3-0.1,0.6-0.3,0.7-0.6c1.1-3.5,5.5-4.7,8.9-4.7c0.5,0,1.2,0.1,1.9,0.2l10.4,8
	c0.2,0.1,0.3,0.2,0.5,0.2c0.1,0,0.7,0.1,1.6,0.1c1.9,0,5.2-0.4,7.4-2.4c1.5-1.4,2.2-3.2,2.3-5.6c5.3,1.1,11.2,2.2,11.3,2.3
	c0.1,0,0.1,0,0.2,0c0.4,0,0.8-0.2,0.8-0.7l0.8-3.1c3.5-0.1,6.3,0.4,6.3,0.5c0.2,0.1,0.5,0,0.7-0.2c0.2-0.2,0.3-0.4,0.4-0.6
	c0.3-3.5-1.8-9.8-1.9-10c-0.2-0.5-0.7-0.7-1.1-0.5s-0.7,0.7-0.5,1.1c0,0,1.4,4.5,1.7,6.9c-1.5-1.3-3.8-3.4-5.8-5l0,0l0,0
	c-0.5-0.4-0.8-0.7-1.2-1.1l1.5-0.9c2.9,0,4.9-0.4,5-0.4c0.5-0.1,0.8-0.5,0.8-0.8c0-1.1-0.1-2.1-0.2-3.2c-0.1-1.4-0.2-2.7-0.1-4
	c0-0.3,0-0.6,0-0.9c0-1.2,0-1.2,0.8-1.2h0.4c1.5-0.2,2.4-0.4,2.7-2.5c0.3-2.5-0.7-6.1-2.2-8.1C316.5,516.3,316.1,516.2,315.8,516.3z
	 M292.9,518.9L292.9,518.9l4.7,3c-0.9,3.1-4.9,4.4-5.8,4.6c-4.8-4.1-8.8-7.1-9-6.9c-0.2,0.2,3.1,3.5,7.6,7.4
	c-2.3,1.1-3.4,3.4-3.7,5.2l-0.9-0.8c0.4-2.1,0.2-4.4-0.5-6c-1-2.7-3.5-5.7-7.2-5.6h-0.2c1-0.2,1.6-0.4,1.8-0.4
	c0.3-0.1,0.5-0.3,0.6-0.6c0.8-2.4,0.7-5.3,0.3-7.9L292.9,518.9z M306.3,539.2c0.4,0.3,0.8,0.8,1.4,1.1l-4.6,5.2
	c0-1.9-0.2-4.9-0.8-8.4c1.5,0.3,3.1,0.5,4.5,0.5l-0.5,0.3c-0.2,0.2-0.3,0.3-0.3,0.5C306.1,538.8,306.1,539,306.3,539.2z
	 M293.5,546.7c2.7-3.7,6.9-6.7,7-6.7c0.2-0.2,0.4-0.5,0.4-0.7c0.7,5.1,0.4,8.6,0.4,8.7c0,0.2,0,0.3,0.1,0.5
	C298.7,547.8,295.8,547.2,293.5,546.7z M261.7,550.2l-7.9-11.1h1.1l0.1,0.1l10.1,2.3l-0.1,0.1l0,0
	C262.6,544.1,261.9,548,261.7,550.2z M267.5,541c-0.1-0.3-0.2-0.5-0.5-0.6l-5.6-1.3h9.2l6.2,6.4l-9.8-3.7c0.1,0,0.1-0.1,0.2-0.1
	C267.4,541.6,267.6,541.3,267.5,541z M214.1,537.3h-35c1.4-0.9,2.5-2.2,3.2-3.7c1.1-2.4,1.2-5.5,0.2-8.2c-0.5-1.4-1.1-2.4-2-3.3
	l97.8-0.5c2.7-0.2,4.7,2.3,5.4,4.4c0.8,2.2,0.9,5.7-0.8,8.3c-1.4,2-3.6,3.1-6.4,3.1h-42.1h-20 M228.1,545L228.1,545l-5.3-5.9h1.7
	c0.1,0,0.1,0.1,0.2,0.1l6.1,0.9v2.3c0,0.3,0.2,0.5,0.4,0.7l1.7,0.8l-2.2,3.7L228.1,545z M234.1,544.5l5.6,2.7l-7.6,0.7L234.1,544.5z
	 M232.1,541.9v-2.8h1.5c0.8,0.8,2.8,3.2,5,6.1L232.1,541.9z M238.5,542c-1-1.3-1.8-2.2-2.4-2.9h8.9L238.5,542
	C238.6,542,238.6,542,238.5,542z M180.1,550.8l-3.4-11.7h6.5l3.7,2.3C185.6,544.4,181.9,548.8,180.1,550.8z M188.1,540.5l-2.2-1.4
	h5.6l3.1,8.9l-6.9-4.5c-0.1-0.1-0.2-0.1-0.2-0.1c0.5-0.8,0.8-1.5,1-2.2C188.5,541,188.3,540.7,188.1,540.5z M193.3,539.1h12.2
	l-9.7,7.3L193.3,539.1z M176.5,424.1h77.6c1.1,2.5,1.8,6,2,10.2h-77.6h-0.1C178.1,430.1,177.5,426.7,176.5,424.1z M178.3,436.1
	C178.3,436.1,178.4,436.1,178.3,436.1h77.7c0.2,7.7-0.9,17.9-3.4,30.5c-4,22.7-5,40.6-3.1,53.4l-73.2,0.4c-0.2,0-0.3,0-0.5,0h-0.5
	c-0.1,0-0.1,0-0.2,0c-0.2,0-0.2,0-0.3,0c0,0-1.5,0.2-2.8,1.5c-2.3-12.7-1.4-31.1,2.7-55C177.4,454.2,178.6,444,178.3,436.1z
	 M175.3,522.1c0.2,0,0.5,0,0.6,0h0.5c2.1,0.1,3.4,1.3,4.4,3.9c0.2,0.3,0.2,0.7,0.3,1h-8.9C172.2,522.7,174.9,522.2,175.3,522.1z
	 M261.8,511.1c0.5,0.5,1.3,1.1,2.1,1.7l-1.7,2.7C262,514.1,261.9,512.7,261.8,511.1z M277.8,506.8c0.7,2.4,1.8,6.8,1.1,10.3l-6-5.6
	C274.5,510.1,276.4,508.3,277.8,506.8z M271.8,512.5l6,5.6c-2.6,0.5-8.4,1.6-14.6,1.6c-0.1,0-0.2,0-0.2,0.1c-0.2-0.6-0.2-1.3-0.4-2
	l2.5-4.1c1,0.6,2.1,1.1,3.1,1.4c0.1,0,0.2,0,0.2,0c0.2,0,0.3-0.1,0.5-0.2C269,514.8,270.2,513.8,271.8,512.5z M287.4,535
	c0.2,0,0.2,0,0.4-0.1c0.3-0.2,0.5-0.5,0.5-0.8c0,0,0-0.6,0.2-1.4l7.9,5.1c-3.1-0.5-7.6-0.9-10.5-0.5l-0.9-3.1
	c0.2-0.3,0.2-0.5,0.4-0.8l1.5,1.5C286.9,535,287.1,535,287.4,535z M300.6,537.5c0.1,0.5,0.2,1.1,0.2,1.6c0-0.2-0.2-0.5-0.4-0.7
	l-0.7-0.5L300.6,537.5z M291.6,546.3c-0.2,0.1-0.5,0.2-0.6,0.5l-2.1-8.2c3.2,0.1,6.9,0.6,9.2,0.9
	C296.3,540.9,293.5,543.4,291.6,546.3z M283.9,535.8l0.7,2.5c0.1,0.4,0.5,0.6,0.8,0.5c0.6-0.1,1.2-0.2,2-0.2l2.4,9.1
	c-2.7-2-8.2-6-11.3-8.8C281.1,538.5,282.8,537.1,283.9,535.8z M298.1,536.9L289,531c0.5-1.1,1.5-2.3,3.1-2.7
	c0.2-0.1,3.3-0.8,5.5-2.9l6.8,7.7L298.1,536.9z M276.4,506.1c-2.7,3-7,6.5-8.2,7.4c-3.1-1-6.2-4-6.6-4.5v-0.1
	C263.5,508.6,271.2,507.5,276.4,506.1z M271,438.2c-0.1,0.2-0.1,0.4,0,0.6c0,0,1.6,3.7-0.2,7c-0.2,0.2-0.2,0.5-0.1,0.8
	c0,0.1,2.2,5.4-0.8,6.9c-0.8,0.5-2.1,0.7-3.7,0.7c-1.5,0-2.7-0.2-3.1-0.3c-2.4-1.5-0.9-5-0.5-5.9c2-0.2,3.5-0.6,3.4-0.9
	c0-0.3-1.5-0.5-3.6-0.5c-1.8-2.5-0.2-5.9,0.3-6.6c2.4-0.2,4.4-0.6,4.4-0.9c0-0.4-2-0.5-4.5-0.5c-1.4-1.1-0.5-3.5-0.2-4.3
	c2.7-1.7,6.5-1.4,7.7-1.2C270.8,433.9,271.7,435.9,271,438.2z M230.7,347.2c-2.6-0.2-6.2,0.1-10.2,1.5l-0.4-3.1
	c3.9-0.7,7.3-0.5,10.1,0.3C230.4,346.3,230.6,346.8,230.7,347.2z M155.8,352.5c-0.1-0.2-0.2-0.5-0.5-0.6c-0.2-0.2-0.5-0.2-0.8-0.1
	c-0.8,0.3-1.4,0.9-1.8,1.5c-4.6-9.5-1-28.2-1-28.4c0.1-0.4-0.1-0.8-0.4-0.9c-2.4-1.5-5.1-1.8-6.7-1.8l0,0c2.2-5.5,8.1-7.7,8.2-7.8
	c0.2-0.1,0.5-0.2,0.5-0.5c0.1-0.3,0.1-0.5,0-0.7c-1.8-3.9-0.5-7.4,0.7-9.3c1.2,3.1,3.7,4.6,5,5.3c-0.8,2.4-0.4,4.5,0.1,4.4
	c0.4-0.1,0.5-2,1.7-4.3c0.1-0.1,0.1-0.1,0.2-0.2c5-9.5,20-14,25-15.2c-0.8,2.6-0.1,5,0.1,5.6c-2,3.1-1.6,6.1-1.2,6
	c0.5,0,0.8-3.3,3.4-6.1c11.9-10.4,24.5-10.2,29.6-9.5c-3.1,2.3-3.9,5.5-4,6.8c-3.1,0.9-4.7,2.9-4.4,3.1c0.3,0.3,2.3-1.1,5.3-1.7
	c0.1,0,0.1,0,0.2,0c0.2-0.1,0.4-0.1,0.5-0.1c0.2,0,0.4-0.1,0.6-0.1c4.4-0.5,9.5,1.6,9.5,1.7c8,2.9,14.6,0.5,17.3-0.9
	c0.2,9.4-6.6,15.6-6.7,15.6c-15.2,14-45.7,10.2-46,10.2c-7.8-1-15.4,3-20,10.4c-1.8,3-3,6.4-3.1,9.3c-0.4,16.9,7.4,26.8,9.2,28.8
	c-0.1,0.2-0.1,0.2-0.2,0.2c0,0-0.1,0-0.2,0c-2.8-2.4-6-3.1-8.6-3.1c-1.5,0-2.7,0.2-3.6,0.4C158,363.7,155.8,352.6,155.8,352.5z
	 M179.5,380.8c-0.4-0.2-1.5,1.1-2.7,2.8c-0.1,0-0.1,0.1-0.2,0.1c-1.3,1.6-3.4,3.6-6,3.7c-2.4,0.1-4.9-1.5-7.5-4.4
	c0-0.1-3.4-4.4-2.7-7.7c0.2-1.2,1.1-2.2,2.4-2.8c0.1,0,7.2-2.6,12.3,2.1c0.1,0.1,0.2,0.2,0.3,0.2c0.1,0,0.9,0.3,1.7-0.2
	c0.6-0.4,1-1,1.1-1.8c0.1-0.3-0.1-0.5-0.2-0.8c-0.1-0.1-9.5-9.9-9-27.9c0.1-2.6,1.1-5.6,2.7-8.5c4.2-6.8,11.2-10.5,18.2-9.5
	c1,0.2,19.1,2.4,34.7-3.2c0.8,5.3,1.8,10,3.2,15.4c0.6,2.2,1.2,4.3,1.8,6.2c-3-0.8-6.5-0.8-10.5,0c-0.4,0.1-0.6,0.4-0.5,0.8l0.6,4.5
	c0,0.2,0.2,0.4,0.3,0.5c0.1,0.1,0.2,0.1,0.3,0.1c0.1,0,0.2,0,0.2-0.1c4.4-1.8,8.3-1.8,11-1.6c0.5,1.5,1.1,2.9,1.8,4.2l0.5,1.1
	c2.1,4.5,3.1,6.8,2,12.8c-0.1,0.2-4.7,23.2-22.6,25.3c-0.2,0-21.5,1.9-33.7-8.9C179.6,381.8,179.8,380.9,179.5,380.8z M208.6,393.8
	c0.6,0,1.1,0,1.6,0c0,0,0,0,0,0.1l-0.1,3.6c-0.1,1-0.8,2-2.1,2.7c-1.4,0.8-3.2,1.1-5.1,0.9c-1.9-0.2-3.7-0.8-5-1.7
	c-1.1-0.8-1.8-1.9-1.7-3l0.1-3.7C201.2,393.7,205.5,393.8,208.6,393.8z M194.7,397.4c0.2,1.2,1,2.4,2.3,3.4c1.5,1.1,3.7,1.9,5.9,2.1
	c0.3,0,0.7,0,1,0c1.9,0,3.7-0.4,5.1-1.2c1.5-0.8,2.5-2,2.9-3.4c3.1,1.5,15.3,7.7,21.6,15.4h-75.8C169.6,402,190.1,398.1,194.7,397.4
	z M144.7,417.9c2.6-2.5,6.5-2.4,6.5-2.4h2.3c1.8,0.2,4.5,0.5,6.4,4.3h-10h-0.1c-0.3,0-0.6,0.1-0.9,0.1c-0.2,0.1-4.2,1-4.2,6.9
	c0,0.5,0.4,0.9,0.9,0.9h9.3c0,0.8-0.1,1.6-0.2,2.4c-0.7,3-2,4.3-4.1,4.4c-2.2,0.1-4-0.6-5.3-1.9c-2.9-2.8-2.9-7.9-2.9-7.9
	C142.2,421.7,143.1,419.4,144.7,417.9z M162.2,434.3h-7.6c0.8-0.9,1.5-2.2,1.8-4c0.8-3.3,0-6.8-2-8.9l0,0h6c0.1,0,0.2,0,0.2-0.1
	C161.6,424.2,162.2,428.2,162.2,434.3z M149.2,421.6c0.4-0.1,0.7-0.1,1.1-0.1h0.1c1.1,0.1,2,0.5,2.7,1.2c0.8,0.8,1.2,1.8,1.5,3.1
	h-8.2C146.8,422.2,149.2,421.6,149.2,421.6z M139.1,455.8c-7.1-6.6,0.6-20,3.3-24.1c0.5,0.7,0.9,1.4,1.5,2c1.7,1.6,3.7,2.4,6.3,2.4
	c0.1,0,0.2,0,0.3,0h0.1c0.1,0,0.1,0,0.2,0h7.3l-5.1,1.5c-0.2,0.1-0.5,0.3-0.6,0.5c-4.4,11.7-1.5,18.9-1.4,19.1
	c0,0.1,0.1,0.1,0.1,0.2c0.5,0.7,1.4,1.6,2.4,2.4C143.8,459.8,139.2,455.8,139.1,455.8z M152.7,456.5c-0.2-0.7-2.4-7.2,1.3-17.3
	l6.1-1.8c0.1,4.7,0.2,8.3,0.5,8.3s0.8-3.7,0.8-8.4c1.9,0.1,6.6,0.5,9.2,2.7c0.2,0.8,0.9,3.9-0.9,5.1c-2.3-0.4-4-0.5-4.1-0.1
	c-0.1,0.4,1.6,1,3.8,1.5c0.4,0.9,1.9,5.2-0.6,7.9c-2.1-0.4-3.8-0.4-3.9-0.1c-0.1,0.3,1.5,0.9,3.6,1.4c0.4,1.1,1.7,5.4-1.5,6.9
	c-0.1,0-0.3,0-0.5,0c-1.4,0-6-0.1-8.2-1.5C157,460.2,153.6,457.8,152.7,456.5z M160.2,463.7c2.4,0.6,5,0.7,6.3,0.7
	c0.5,0,0.7,0,0.7,0c0.1,0,0.2,0,0.3-0.1c3.9-1.7,3.5-6.3,2.7-9c2.7-3.2,1.5-7.6,0.9-9.2c2.5-2.3,1.1-6.7,1-6.9
	c-0.1-0.2-0.2-0.3-0.2-0.4c-2.2-2-5.5-2.7-8.1-3.1c0.4-12.4-1.9-17.9-5.2-20.2h76.6l0,0l0,0h23.2c2,0.2,7.9,0.8,8.6,15.9
	c-1.8,0.2-3.9,0.6-5.6,1.8c-0.2,0.1-0.2,0.2-0.3,0.4c-0.1,0.2-1.8,3.8,0.2,6.1c-0.7,1.5-2.1,5-0.2,7.9c-1,2.2-1.8,6.2,1.5,8.1
	c0.1,0.1,0.2,0.1,0.3,0.1c0.1,0,0.9,0.2,2.2,0.3c-0.4,2.3-0.8,4.7-1.3,7.2c-4.1,23.5-5.1,42-2.9,54.8c-0.1,0.2,0,0.5,0.1,0.6
	c0.1,0.5,0.2,0.9,0.3,1.4l-9.8,0.1c-1.9-12.6-0.8-30.5,3.1-53.1c4.2-21.9,4.5-36.7,0.9-44.1c-0.2-0.3-0.5-0.5-0.8-0.5h-79.5
	c-0.3,0-0.6,0.2-0.8,0.4c-0.2,0.2-0.2,0.6-0.1,0.8c3.4,6.9,3.1,21.5-1.1,43c-4.4,25.2-5.2,44.4-2.4,57.4c-0.4,1-0.6,2.3-0.5,4
	c0,0.5,0.4,0.8,0.9,0.8h10.2c0.1,1.5-0.2,2.8-0.7,4c-0.8,1.8-2.4,3.3-4.7,4c-0.2,0.1-5.6,1.8-10.6-2.6
	C158.6,528.3,152.2,511.3,160.2,463.7z M153.4,540.1c-0.1-0.2-0.2-0.2-0.2-0.3l1.2-1c1.1,0.2,3.5,0.7,5.6,2.4
	c-0.1,1.5-0.5,7-1.4,10.9C156.7,546.7,153.6,540.4,153.4,540.1z M145.2,555c-0.1-0.3-0.3-0.5-0.6-0.5c-2-2.9-4.7-5.3-6.5-6.7
	c2.2-0.4,6-0.8,9.2-0.9L145.2,555z M133.1,553.7l-4.6-5.2c0.5-0.5,1-0.8,1.4-1.1c0.2-0.2,0.2-0.4,0.2-0.6c0-0.2-0.2-0.5-0.3-0.5
	l-0.5-0.3c1.5-0.1,3-0.2,4.5-0.6C133.2,548.8,133.1,551.8,133.1,553.7z M144.1,536.4c1.7,0.5,2.7,1.6,3.2,2.7l-9.2,5.9l-6.3-3.8
	l6.8-7.7C140.8,535.7,143.9,536.3,144.1,536.4z M135.6,545.6l0.8,0.5l-0.7,0.5c-0.2,0.2-0.4,0.4-0.4,0.7
	C135.4,546.7,135.4,546.2,135.6,545.6z M139.9,546l7.9-5.1c0.2,0.8,0.2,1.3,0.2,1.4c0,0.4,0.2,0.7,0.5,0.8c0.2,0.1,0.2,0.1,0.4,0.1
	c0.2,0,0.4-0.1,0.6-0.2l2.4-2.1c0,0,0,0.1,0.1,0.2l-1.5,4.4C147.4,545.1,143,545.6,139.9,546z M152.8,542.9c0.2,0.5,0.5,0.9,0.7,1.5
	l-1-0.5L152.8,542.9z M155.7,537.6l2.1-1.8l-0.9,2.1C156.5,537.7,156.1,537.6,155.7,537.6z M161,546l8,1.8c-2.5,2.6-6.7,4.3-9.1,5
	C160.4,550.7,160.7,548.2,161,546z M161.1,544.5c0.2-2.1,0.3-3.6,0.3-3.7c0-0.2-0.1-0.5-0.2-0.6c-0.9-0.8-1.9-1.4-2.9-1.8l2.1-4.7
	l1.2-1.1c0.2,0.2,0.4,0.5,0.5,0.8l0,0c3.5,5,6,10.4,7,12.9L161.1,544.5z M160.5,531.2l-11,9.4c-0.4-1.9-1.5-4.2-3.8-5.3
	c4.5-3.9,7.9-7.1,7.6-7.4c-0.2-0.3-4.2,2.7-9,6.9c-0.8-0.2-4.9-1.4-5.8-4.6l4.7-3l0,0l13-8.2C157.2,524.2,158.7,528.3,160.5,531.2z
	 M138.1,517.9c0.2-0.1,0.4-0.2,0.6-0.2c0.8-0.3,1.5-0.5,2.3-0.7c1.5-0.2,2.1-0.2,2.3-0.1c0.3,3.3-0.2,5.8,0.2,5.9
	c0.3,0.2,1.1-1.7,1.2-4.4c0.1,0.1,0.2,0.1,0.2,0.2c1.2,0.5,2.7,0.3,4,0.2l-0.1,2.6l-6.3,4c-1.9,0.3-4.3,0.3-6.7,0.3
	C136.1,524.3,137.4,520.1,138.1,517.9z M120.6,526.3c2.4,0.3,11.5,1.5,18.6,1.2l-2.2,1.5c-0.3,0.2-0.5,0.5-0.4,0.9
	c0.2,0.8,0.5,1.6,0.8,2.3l-7.7,8.8c-0.2,0.2-0.2,0.5-0.2,0.7c0.1,0.2,0.2,0.5,0.4,0.6l2.4,1.5c-4.2,0.7-8.1,0.3-9.7,0.2
	c0-0.8,0.1-1.5,0.2-2.3c0.1-1.4,0.2-2.7,0.1-4.1c0-0.3,0-0.5,0-0.8c0-0.5,0-1.1-0.2-1.5c6.4,0.4,11.3-0.2,11.2-0.6
	c-0.1-0.2-5.8-0.2-13.2-0.8c-0.1,0-0.2,0-0.2-0.1h-0.4c-1-0.1-1-0.1-1.1-1C118.8,530.7,119.5,527.9,120.6,526.3z M114.5,551.1
	l0.8-8.3c2.1-0.1,3.6-0.2,3.7-0.2c0.2,0,0.5-0.2,0.5-0.3c0.8-1.1,1.2-2.4,1.6-3.5c0,0.8-0.1,1.8-0.1,2.7c-0.1,1.1-0.2,2.1-0.2,3.2
	c0,0.5,0.3,0.8,0.8,0.8c0.1,0,0.6,0.1,1.4,0.2C119.3,548.7,116.1,550.4,114.5,551.1z M120.1,535.4h0.2c0,1-0.3,3.5-1.7,5.8
	c-1.5,0.1-7.1,0.4-11-0.1c4.4-2.1,9.2-5.2,10.8-6.2C118.8,535.2,119.3,535.3,120.1,535.4z M107,542.5c1.8,0.2,4,0.3,6,0.3
	c0.3,0,0.6,0,0.8,0L113,551C110.2,548.7,108,544.7,107,542.5z M125.7,545.9c0.4,0,0.7,0,1.1,0l1.5,0.9c-0.4,0.3-0.8,0.7-1.2,1.1l0,0
	l0,0c-1.9,1.7-4.3,3.7-5.8,5c0.2-1.9,0.8-3.7,1.1-4.4C123.3,547.8,124.4,546.9,125.7,545.9z M122,554.1c1.4-1.1,3.5-3.1,5.4-4.7
	l4.5,5.1C128,553.7,124.2,553.8,122,554.1z M128.6,555.8c1.5,0.2,3.1,0.5,4.6,0.9c-1.8,0.4-3.2,0.6-4.1,0.8L128.6,555.8z
	 M134.8,556.4c0.1-0.2,0.1-0.3,0.1-0.5c0-0.1-0.3-3.6,0.4-8.7c0,0.3,0.2,0.5,0.4,0.7c0.1,0,4.3,3,7,6.7
	C140.3,555.4,137.4,556,134.8,556.4z M146.4,556.2l2.4-9.4c0.7,0,1.4,0.1,2,0.2c0.4,0.1,0.7-0.2,0.8-0.5l0.4-1.2l2.4,1.2
	c0.5,1,0.9,2.1,1.3,3.1C153.2,552.1,148.7,554.8,146.4,556.2z M176,549.6l-5.2-1.4c0.2-0.2,0.2-0.3,0.4-0.5c0.2-0.2,0.2-0.5,0.2-0.8
	c-0.1-0.2-1.8-4.5-4.7-9.7c2.4,1.3,4.6,1.7,6.4,1.7c0.1,0.1,0.2,0.1,0.4,0.1h1.4l2.4,8.2L176,549.6z M181.3,551.6
	c1.4-1.5,3.7-4.3,5.4-6.9l0.1,0.1l7.7,5c-0.8,0.4-1.6,0.7-2.4,0.9l0,0C188.1,551.8,183.6,551.8,181.3,551.6z M208.3,553.2l-12.7-2
	c0.3-0.2,0.6-0.3,0.9-0.5c0.4-0.2,0.5-0.7,0.4-1.1l-0.5-1.5c0.1,0,0.2-0.1,0.2-0.1l11.8-8.9c0,0,0-0.1,0.1-0.1h2.1l-4.3,2.2
	c-0.2,0.2-0.4,0.4-0.5,0.6c-0.1,0.2,0,0.5,0.2,0.8l0.5,0.5c0.8,0.9,1.7,2.1,1.9,3c0,0.2,0,0.2-0.2,0.5c-0.2,0.3-0.5,0.7-0.5,1.2
	c-0.1,1,0.8,2.1,1.7,3.2c0.2,0.2,0.3,0.3,0.5,0.5L208.3,553.2z M212.9,551.9c-0.2-0.1-0.2-0.2-0.4-0.3c-0.7-0.5-1.3-1-1.8-1.6
	c-1-1.1-1.2-1.7-1.3-1.9c2.6-2,5-3,5-3.2c0-0.3-2.1,0-4.4,1.3c0-0.1,0-0.2,0-0.2c-0.2-1.2-1.1-2.4-2-3.4l6.3-3.3h5.9l5.6,6.1
	C223.2,546.7,216.1,550.3,212.9,551.9z M245.1,550.8l-2.9-2c0.3-0.1,0.5-0.2,0.6-0.5c0.2-0.3,0.1-0.6-0.1-0.9
	c-1.2-1.5-2.2-2.8-3.1-4l9.3-4.2c0.1-0.1,0.2-0.1,0.2-0.2h2.5l3.8,5.3L245.1,550.8z M263.2,550.1c0.2-2,0.8-5.1,2.6-7.2l11.8,4.4
	c-0.9,0.1-1.9-0.1-2.9-0.2c-0.8-0.1-1.6-0.2-2.3-0.2C269.2,546.7,265.5,547.6,263.2,550.1z M292.8,553.4c-2.3,2.2-6.3,2-7.3,1.9
	l-8-6.2c1.1,0,2.1-0.2,3.1-0.9c0.2-0.2,0.3-0.4,0.4-0.6c0-0.2-0.1-0.5-0.2-0.7l-7.5-7.7h2.9c3.7,3.7,13.8,10.9,14.3,11.2
	c0.2,0.1,0.3,0.2,0.5,0.2c0.1,0,0.2,0,0.2,0c0.2-0.1,0.5-0.3,0.6-0.5c0.2-0.6,0.5-1.1,0.8-1.8c0.6,0.2,1.4,0.3,2.1,0.5
	C294.5,550.7,293.9,552.2,292.8,553.4z M307.1,549.4c-0.8-0.2-2.4-0.5-4.1-0.8c1.5-0.5,3.1-0.8,4.6-0.9L307.1,549.4z M304.3,546.4
	l4.5-5.1c1.9,1.6,4,3.5,5.4,4.7C311.9,545.7,308.1,545.5,304.3,546.4z M317.1,524.4c-0.2,0.9-0.2,0.9-1.1,1h-0.4c-0.1,0-0.2,0-0.2,0
	c-7.4,0.8-13.2,0.6-13.2,0.8c-0.1,0.4,4.7,1,11.2,0.6c-0.2,0.5-0.2,1-0.2,1.5c0,0.2,0,0.5,0,0.8c-0.1,1.4,0,2.7,0.1,4.1
	c0.1,0.8,0.1,1.5,0.2,2.3c-1.6,0.2-5.6,0.5-9.7-0.2l2.4-1.5c0.2-0.2,0.4-0.4,0.4-0.6c0-0.2-0.1-0.5-0.2-0.7l-7.7-8.8
	c0.4-0.7,0.7-1.5,0.8-2.3c0.1-0.4-0.1-0.7-0.4-0.9l-2.2-1.5c7.1,0.2,16.3-0.9,18.6-1.2C316.7,519.8,317.4,522.5,317.1,524.4z"/>
<path fill="#3A3A3A" d="M292.1,467c-0.2-0.2-0.5-0.3-0.8-0.2c-0.7,0.1-16.6,2.5-25.7,9.7c-0.2,0.2-0.3,0.4-0.3,0.6
	c0,0.2,0.1,0.5,0.2,0.7c4.1,4.3,6.6,13.6,6.7,13.7c0.1,0.3,0.3,0.5,0.6,0.6c0.1,0,0.2,0.1,0.3,0.1c0.2,0,0.4-0.1,0.5-0.2
	c8.6-6.9,24.7-9.3,24.8-9.3c0.5-0.1,0.8-0.5,0.8-0.9C299,473.7,292.4,467.2,292.1,467z M282.4,477.1l-13.3-0.9
	c6.5-4.1,15.4-6.3,19.8-7.2C287.1,470.9,284.2,474,282.4,477.1z M282.8,478.5L282.8,478.5c0.3,0,0.5-0.2,0.7-0.4
	c0.6-1.1,1.5-2.4,2.3-3.4c1.7,0.6,7.7,2.9,11.1,6.3c-3.7,0.7-14.3,2.9-21.9,7.7c1-3.6,3.1-8.9,3.7-10.5L282.8,478.5z M286.8,473.6
	c1.8-2.1,3.7-3.9,4.6-4.8c1.3,1.4,4.8,5.6,5.9,10.7C293.9,476.3,288.9,474.3,286.8,473.6z M267.7,477.6l9.5,0.7
	c-0.8,2.1-2.9,7.6-3.8,11C272.6,486.3,270.6,481.1,267.7,477.6z"/>
<path fill="#3A3A3A" d="M274.8,409c0.2,0.2,0.3,0.4,0.6,0.4c0.1,0,0.2,0,0.2,0c0.2,0,0.4-0.1,0.5-0.2c0.7-0.5,1.2-0.9,1.8-1.4
	c2.7-2.1,4.7-3.7,8.2-3.7c0.5,0,1.1,0,1.7,0.1c1.5,0.2,2.8,0.7,4.3,1.2c2,0.8,4,1.5,6.3,1.5c2.1-0.1,3-0.9,4-1.8
	c0.3-0.2,0.6-0.5,1-0.8c0.4-0.3,0.5-0.8,0.2-1.1l-9.2-15c-0.2-0.2-0.4-0.4-0.6-0.4c-0.2-0.1-0.5,0-0.7,0.2c-0.4,0.3-0.8,0.6-1.1,0.9
	c-0.9,0.8-1.5,1.3-2.9,1.4c-1.9,0.1-3.7-0.6-5.5-1.3c-1.5-0.5-3.1-1.1-4.7-1.4c-0.7-0.1-1.3-0.2-1.9-0.2c-4,0-6.5,1.8-9.2,4
	c-0.5,0.5-1.1,0.9-1.8,1.4c-0.4,0.3-0.5,0.8-0.2,1.1L274.8,409z M268.8,392.9c2.7-2.1,4.7-3.7,8.2-3.7c0.5,0,1.1,0,1.7,0.1
	c1.5,0.2,2.8,0.7,4.3,1.2c2,0.8,4,1.5,6.3,1.5c2.1-0.1,3-0.9,4-1.8c0.1-0.1,0.2-0.1,0.2-0.2l8.2,13.4c-0.2,0.2-0.3,0.3-0.5,0.4
	c-0.9,0.8-1.5,1.3-2.9,1.4c-1.9,0.1-3.7-0.6-5.5-1.3c-1.5-0.5-3.1-1.1-4.7-1.4c-0.7-0.1-1.3-0.2-1.9-0.2c-4,0-6.5,1.8-9.2,4
	c-0.3,0.2-0.7,0.5-1,0.8l-8.3-13.3C268,393.5,268.4,393.2,268.8,392.9z"/>
<g>
	<path fill="#F7F0E7" d="M542.1,413.7c0,0-8.6,1.5-7.3,21.8c0,0,12.7,74.7,3.5,89.5c0,0-6.6,19.8-21.3,9.1c0,0-3.3-4.7-0.9-6h10.2
		c0,0,1.3-8.7-4.8-8.7l-86.3,0.5c0,0,4.1-22.3-3.3-65.3c0,0-11.1-34.7,5.3-41L542.1,413.7L542.1,413.7z"/>
	<path fill="#FCF9F5" d="M521.4,421.9c0,0-5.5,7.9,4.9,65.6c0,0,2.9,25.5-0.7,34.1c0,0-2.1-1.9-7.4-1.1l-71.3-0.7
		c0,0,2.7-20.1-2.1-48.8c0,0-8-32.5-2-49.2L521.4,421.9L521.4,421.9z"/>
	<path fill="#D9D2CA" d="M545,434.3c0,0-3.9-4.1-2.7-8.9h9.9c0,0,0.6-5.6-5.3-5.6h-10.5c0,0,1.8-7.9,13-6.2c0,0,10.5,3.3,5.6,16
		C554.8,429.7,553.5,435.1,545,434.3z"/>
	<path fill="#D9D2CA" d="M526.2,527H516c0,0-0.8-5.3,5.8-6.5C521.8,520.5,526.5,520.2,526.2,527z"/>
	<path fill="#ADA49A" d="M551.9,425.9h-9.8c0,0,0.5-6,6-6C548.1,419.8,551.6,419.2,551.9,425.9z"/>
	<path fill="#B7ADA1" d="M545,434.3c-6.9-9.5,1.2-14.4,1.2-14.4h-9.6c0,0-3.1,6.9-0.5,15l8.4-0.4L545,434.3z"/>
	<path fill="#F7F0E7" d="M519.3,520.5c0,0-9.5,9.2,1.8,16.6H419.4c0,0-8.2-0.5-7-10.2c0,0,1.1-8,7.3-7.6L519.3,520.5z"/>
	<path opacity="0.44" fill="#ADA49A" enable-background="new    " d="M542.8,426c-0.2,0.1-0.4,0.2-0.5,0.2c-1.2,0.8-0.6,2.7-0.6,2.7
		h9.2c2.1-0.3,2.1-3.1,2.1-3.1"/>
	<path fill="#A59C92" d="M539.5,419.8c0,0-3.7,7.3-1.1,14.8h-3c0,0-2.4-10.1,2-14.8H539.5z"/>
	<path opacity="0.67" fill="#D9D2CA" enable-background="new    " d="M527.3,526.4c0,0,1,4.7-2.4,4.9h-4.9c0,0-0.6,5.8,5.6,5.1
		l-5.6,0.8H418.5c0,0-3.4,0.3-4.8-3.6h103.5c0,0-2.4-1.6-1.2-6.3L527.3,526.4z"/>
	<path fill="#E2CCAD" d="M544.8,437.8c0,0,4.2,12.9,0.9,18.5c0,0-4.4,5.5-9.5,6.1h-6c0,0-3.8-2.5-1.5-8c0,0-2.7-3.3-0.8-9.3
		c0,0-3.6-3.6-1.5-6.7l9.8-3.1L544.8,437.8z"/>
	<path fill="#D1BBA3" d="M538.9,460.5c6.9-4.4,5-22.3,5-22.3s5,7.9,1.2,18.7l-6.2,4.6L538.9,460.5z"/>
	<path fill="#E2CCAD" d="M405.5,381.1c0,0-1.6,2.8-1.1,6.3c0,0-2.3,5.8-0.5,9.2c0,0-4.5,9.7,4.2,10.7c0,0,12.6,3.1,14.1-8.5
		c0,0,2.2-6.2-2.2-12.1c0,0,0.8-6.7,2.7-11c0,0,0.8-3.2-3-3.3c0,0-7.6-1.8-7.5,8.8C412.2,381.1,407.2,380.4,405.5,381.1z"/>
	<path fill="#D1BBA3" d="M414.2,407.3c1.5-1.5,1.1-8.4,1.1-8.4c0.8-3.4,0.5-9.5,0.5-9.5l0.8-6.9c0,0,3.3,2.2,1,7.3
		c0,0,2.2,4.4-0.1,8.6c0,0-1.1,7.3,2.7,4c0,0-1.1,5.6-5.1,4.7L414.2,407.3z"/>
	<path fill="#E2CCAD" d="M528.6,375c-11.7,11.3-26.2,16.3-26.2,16.3c1.6,7.9-4.6,9.3-4.6,9.3c-8.2,1.5-10.8-3.1-10.8-3.1v-5.1
		c-27-8.7-28.2-27.4-28.2-27.4c1.8-7.9,4.2-36.2,4.2-36.2s18.2,4.2,33.6-5.5c0,0,6.9,13.3,25,9.9c0,0-3.5,9.9,4.6,14
		c0,0-5.3,13,3.1,17.3c0,0,12.3-8.8,13.3,2.6c0,0-3.9,16.9-13.1,8.1L528.6,375z"/>
	<path fill="#FFFFFF" d="M479.1,372.3c0,0-1.6,5.2,2.5,5.9l0.5-1.9c0,0,14.2-2,19.9,0.8v1.1c0,0,2.2,1.5,3.5-5.3
		C505.4,372.8,492.1,369.2,479.1,372.3z"/>
	<path fill="#CA4F50" d="M501.1,383.1c-2.3-3.5-9,0-9,0c-3.6-3-8.2,0-8.2,0s7.9,7.6,16.7,0.4L501.1,383.1z"/>
	<path opacity="0.7" fill="#3A3A3A" enable-background="new    " d="M503.3,378.1c-0.3,0.1-0.6,0.2-0.9,0.2c-0.6,0-1.1-0.2-1.1-0.2
		c-0.1,0-0.2-0.1-0.2-0.2s0-0.2,0.1-0.2l0.8-0.8l-1.1-0.2c-2.3-0.5-5-0.7-8.2-0.7c-4.5,0-8.6,0.5-10.2,0.7l-0.7,0.1l0.2,0.6
		c0.1,0.2,0.1,0.2,0.2,0.3c0,0.1,0,0.2,0,0.2s-0.1,0.1-0.2,0.2c-0.4,0.2-0.8,0.2-1.1,0.2c-0.1,0-0.2,0-0.3,0l-0.9-0.1l0.4,0.9
		c0.3,0.8,0.8,1.5,1.2,2.1c0.5,0.8,1.2,1.5,2.1,2.1l0.3,0.2l0.3-0.2c0.6-0.4,2.4-1.4,4.6-1.4c1.2,0,2.4,0.3,3.5,0.9l0.3,0.2l0.3-0.2
		c0.6-0.4,2.4-1.2,4.4-1.2c1.4,0,2.6,0.4,3.6,1.1l0.4,0.3l0.3-0.4c1-1.1,1.8-2.3,2.5-3.7l0.5-1.1L503.3,378.1z"/>
	<path fill="#6CB8A5" d="M423.2,391.4c0,0,1.2,11-4.8,15.4c0,0,7.4,8.2,28,7.7l95.7-0.8c0,0-16-16.3-39.4-17.9c0,0-0.5,5.5-9.2,5.5
		c0,0-5.5,0.8-6.9-4.9C486.6,396.2,453,409.6,423.2,391.4z"/>
	<path fill="#6CB8A5" d="M536.2,434.4l8.7,3.4c0,0,6.1,16-2.2,21.5c0,0,23.7,2.6,19.2-16.5c0,0-2.2-7.1-6.5-13.2c0,0-0.5,6.1-11,4.8
		H536.2L536.2,434.4z"/>
	<path fill="#F2CF98" d="M540.8,335.9l-0.4,0.2c-0.6,0.2-1.3,0.4-1.8,0.5c0.3-0.2,0.8-0.5,1.1-0.6c0.6-0.3,1.2-0.7,1.9-1.1l0.1-0.1
		c4.1-3.1,5.6-6.8,5-13.3c-0.5-5.3-2.9-11.6-8.7-13.4c-0.1,0-0.2-0.1-0.2-0.2c-0.1-0.1-5.1-10-15.7-13.4c-7.5-2.4-16.1-1.1-25.3,3.7
		c-0.1,0.1-0.2,0.1-0.3,0c-0.1-0.1-7.6-4.3-15.8-4.3c-2.6,0-5,0.5-7.2,1.3c-5.5,2.1-9.5,6.9-11.9,14.3c-0.2,1.1-0.4,2.1-0.5,3
		c0,0.2,0,0.3-0.1,0.5c-0.1-0.4-0.2-0.9-0.2-1.6v-1.1l-0.8,0.7c-2.7,2.2-7.3,6.9-7.8,13.3c-0.5,6,2.5,12.1,9,18.2l0.8,0.8l0.1-1.1
		c0.6-7.3,0.8-12.8,0.8-13.2l0.1-0.5c2,0.4,4.9,0.9,8.3,1h0.2c0.5,0,1.1,0,1.8,0c5.3,0,13.6-1,23.1-5.8l0.5-0.2l-0.2-0.5
		c-0.4-0.8-0.7-1.5-0.8-2.1c0.9,1.8,2.4,4.2,4.9,6.5l0.2,0.1c4.2,3.9,9.5,5.9,15.9,5.9c1.7,0,3.4-0.2,5.3-0.5c0.1,0,0.2,0.1,0.2,0.1
		c0.1,0.1,0.1,0.2,0.1,0.3c-0.2,0.4-2.8,10.2,4.4,13.9c0.2,0.1,0.2,0.2,0.2,0.4c-0.1,0.1-3.7,9.8,2.1,16.3l0.4,0.5l0.4-0.4
		c2.4-2.4,5.1-2.8,7.1-2.8c1.9,0,3.3,0.5,3.3,0.5c0.4,0.2,0.8,0.4,1.1,0.6l0.5,0.3l0.3-0.5c1.9-2.9,7.5-13.2-0.8-25.6L540.8,335.9z"
		/>
	<polygon opacity="0.68" fill="#62A08E" enable-background="new    " points="537.8,410.3 425.1,410.3 437.3,413.7 542.3,413.7 	"/>
	<path opacity="0.68" fill="#62A08E" enable-background="new    " d="M557.6,432.3c0,0-2,5.6-8.3,5.4c0,0,4.5,18.8-2.7,21.8
		l-3.9-0.1l3.5-3.8c0,0,2.6-6.5-1.1-17.3l-7.8-3l9.4-0.5c0,0,7.3,2.2,8.9-5.9L557.6,432.3z"/>
	<path fill="#F2CF98" d="M503,337.2c0,0-2.6,2.8-0.4,4c0,0,9.5,1.1,12.3,3.5c0,0,2.7-1.5,1.9-3.1C516.8,341.4,509.6,335.3,503,337.2
		z"/>
	<path fill="#F2CF98" d="M474.2,336.8c0,0,1.5,2.1,0,4c0,0-8-0.7-11.6,1.7l0.3-4.9C462.9,337.7,468.8,335.1,474.2,336.8z"/>
	<path fill="#D1BBA3" d="M501.2,340.3c0,0,0.2,2.5,1.3,2.8c0,0,7.6,0.3,12.4,3.7c0,0,4,0.5,2.8-5.3l-2.5,3.1
		C515.1,344.6,511.5,342,501.2,340.3z"/>
	<path fill="#D1BBA3" d="M475.8,339.7c0,0,0.4,3.1-2,2.7c0,0-7.9-0.5-11.3,2.4v-2.6c0,0,4.7-3.1,11.6-1.7L475.8,339.7z"/>
	<path fill="#D1BBA3" d="M481.5,341.1c0,0-1,12.5-2.7,14.7c0,0-8.2,0.5-5.4,8.8c0,0,2.8,8.2,8.6,0.8c0,0-6.9,3.9-6-4.2
		c0,0,1-3.5,5.5-2.1C481.4,359,483.3,349.3,481.5,341.1z"/>
	<path fill="#D1BBA3" d="M487,394.5c0,0,8.6,3.9,14.6-0.4V392c0,0-9.1,2.7-14.8,0L487,394.5z"/>
	<path opacity="0.55" fill="#D8B587" enable-background="new    " d="M542.4,311.7c6,16.3-7.4,24.6-7.4,24.6s7.6,12.6,2.4,20.4
		c0,0-8.3-1.6-9.8,4.6l1.3,3.8c0,0,8.2-7.2,12.4-1.6c0,0,9.9-11.1,0-27.1c0,0,11.3-9.3,2.3-24.2L542.4,311.7z"/>
	<path fill="#F7F0E7" d="M556.4,474.3v2.9l1.2,5.7v7.6l-2.1,5v5.2c0,0,9,5.4,27.4,2.5l0.7-6.8l1.9-4.7l-0.5-8.4l-1.4-7.5
		L556.4,474.3z"/>
	<path fill="#D9D2CA" d="M583.8,475.9v3.2c0,0,2.8,7.9,1.8,13.1c0,0-2.9,7.4-2.7,10.8l5-0.4l3.9-2.3c0,0,1.1-8.1,2.9-11.5
		c0,0-1.5-13.7-2.3-15.1L583.8,475.9z"/>
	<path fill="#FCF9F5" d="M558.6,473.7c0.2-0.1,7.6-2.4,7.6-2.4l24.6,1.8l-7.6,2.4L558.6,473.7z"/>
	<path opacity="0.67" fill="#D9D2CA" enable-background="new    " d="M555.9,498.3c0,0,12,4.3,26.3,1.8l0.6,2.7c0,0-18.5,2.1-28-2.3
		L555.9,498.3z"/>
	<path opacity="0.7" fill="#B7ADA1" enable-background="new    " d="M591.1,497.8c-2.1,2.1-7.1,2.4-7.1,2.4l-0.8,2.5
		c0,0,6.6,0.4,8.5-2.5L591.1,497.8z"/>
	<path fill="#99D5C3" d="M592.4,500.3l-3,36.3c-1.1,4.4-14.7,4.5-14.7,4.5c-12.8,0.5-18.6-3.9-18.6-3.9l-3.6-37.9
		c0,0,1.2,3.8,21.4,4.8C574,504.1,586.6,504,592.4,500.3z"/>
	<path opacity="0.54" fill="#6CB8A5" enable-background="new    " d="M590.8,510.3c0,0-2.9,35.4-34.2,22.7l-0.5,4.6
		c0,0,14.1,9.8,33-0.5L590.8,510.3z"/>
	<path fill="#9ECE6F" d="M463,424.9c-1.5,0-2.7,1.2-2.7,2.7s1.2,2.7,2.7,2.7c1.5,0,2.7-1.2,2.7-2.7S464.5,424.9,463,424.9z"/>
	<path fill="#EABB67" d="M455.6,424.9c-1.5,0-2.7,1.2-2.7,2.7s1.2,2.7,2.7,2.7s2.7-1.2,2.7-2.7S457,424.9,455.6,424.9z"/>
	<path fill="#DD5050" d="M448.2,424.9c-1.5,0-2.7,1.2-2.7,2.7s1.2,2.7,2.7,2.7s2.7-1.2,2.7-2.7S449.6,424.9,448.2,424.9z"/>
	<path fill="#3A3A3A" d="M542.1,460.7c0.1,0,0.2,0.1,0.2,0.1c0.8,0.1,1.5,0.1,2.2,0.1c10.3,0,15.3-4.3,15.5-4.5
		c8.9-8.3-1.7-24.5-3.6-27.3c1-2.6,1-5.1,1-5.3c0-3.4-1-6-3-7.9c-3.1-3.1-7.6-2.9-7.7-2.9h-4c-12.4-13.4-35-17.4-39.5-18.1V392
		c7.3-2.1,16.7-6.7,25.3-16.4c1.8,1.8,3.7,2.8,5.6,2.8c0.1,0,0.2,0,0.3,0c2.5-0.2,4.9-1.9,7.1-5.3c0.2-0.2,3-5,1.8-8.8
		c-0.2-0.5-0.5-1.1-0.8-1.5c1.8-2.6,8.2-13.9-0.4-27c0.1,0,0.2-0.1,0.2-0.2c4.4-3.3,6-7.5,5.5-14.4c-0.5-5.6-3.1-12.2-9.2-14.3
		c-1-1.8-6.1-10.5-16.3-13.7c-7.8-2.5-16.5-1.3-25.9,3.7c-2.4-1.2-13.6-6.7-23.6-2.8c-5.8,2.3-10.1,7.3-12.6,14.9
		c-1.5,1.1-8.8,6.5-9.5,15.1c-0.5,6.6,2.9,13.3,10.2,19.9c0.1,0.1,0.2,0.1,0.2,0.2c-0.7,6.7-1.8,14.4-3.4,20.8c0,0.1,0,0.2,0,0.3
		c0,0.2,1.8,18.9,28.2,27.4c-0.1,0.2-0.1,0.2-0.1,0.4v2.9c-5,1.3-38.2,9.2-62.5-6c-0.1-0.1-0.2-0.1-0.3-0.1
		c-0.8-2.4-2.2-3.4-2.3-3.4c-0.5-0.7,0.6-5,2.4-9.3c1.1-1.9,0.2-3.7-0.5-4.3c-1.8-2.4-6.3-1.6-6.8-1.5c-4.4,0.7-4.6,8-4.7,8.9
		c-1.6-0.3-3.1-0.5-4.2-0.5c-0.8,0-1.3,0.1-1.3,0.1c-0.2,0-0.5,0.2-0.6,0.3c-0.1,0.2-2.6,3.2-1.9,7.3c-0.5,1.1-2.1,5-0.5,9
		c-0.8,1.6-3.1,7.5,1.1,10.1c1.9,1.2,4.7,1.5,6.8,1.5c0.8,0,1.4,0,1.8-0.1c0.4,0.1,1.1,0.3,2.1,0.3c0.9,0,2-0.2,3.1-0.7
		c0.5,0.4,7.9,5,16.5,6.4c-1.1,0.6-2.1,1.5-2.9,2.6c-8.6,11.4,0.7,44.6,1.1,46c5.4,21,4.7,45.8,2.4,56.4l-15.1-0.1
		c-3.7-0.2-6.2,2.8-7.2,5.6c-1,2.7-1.1,6.8,1.1,9.9c1.2,1.8,3.5,3.8,7.9,3.8h102.9c0.2,0,0.2,0,0.4-0.1c2.4,0,5.6-0.7,8.8-3.4
		c7.2-6.2,14-23.8,5.6-72.5c0.5-0.2,0.8-0.4,1.2-0.6C540.6,461.7,541.3,461.3,542.1,460.7z M558.8,455c-0.1,0.1-4.7,4-14.5,4
		c1.1-0.8,2-1.8,2.4-2.4c0-0.1,0.1-0.1,0.1-0.2c0.2-0.3,3.1-7.4-1.4-19.1c-0.1-0.2-0.3-0.5-0.6-0.5l-5.1-1.5h7.3c0.1,0,0.1,0,0.2,0
		h0.1c2.7,0.1,5-0.8,6.6-2.4c0.6-0.6,1.1-1.3,1.5-2C558.2,435,565.8,448.4,558.8,455z M537.3,420.7c0.1,0,0.2,0.1,0.2,0.1h6l0,0
		c-1.9,2.1-2.7,5.6-2,8.9c0.4,1.7,1,3,1.8,4h-7.6C535.7,427.5,536.3,423.4,537.3,420.7z M547.6,420.7h0.2c0.3,0,0.5,0,0.8,0.1
		c0.1,0,2.4,0.6,2.8,4.2h-8.2c0.3-1.2,0.8-2.3,1.5-3.1C545.5,421.1,546.5,420.8,547.6,420.7z M546.7,414.7c0.1,0,3.9-0.2,6.5,2.4
		c1.6,1.5,2.4,3.8,2.4,6.6c0,0.1,0,5-2.9,7.9c-1.4,1.3-3.1,2-5.3,1.9c-2.1-0.1-3.4-1.4-4.1-4.4c-0.2-0.8-0.2-1.6-0.2-2.4h9.3
		c0.5,0,0.9-0.4,0.9-0.9c0-5.9-4-6.8-4.3-6.9c-0.3-0.1-0.6-0.1-0.9-0.1H548h-10.1c1.9-3.7,4.7-4,6.4-4.3L546.7,414.7L546.7,414.7z
		 M452.6,324.4c0.5-6.3,5.2-10.9,7.6-12.9c0.1,1.8,0.6,3.1,0.9,2.9c0.5-0.2,0.4-2.2,0.9-4.7c2.4-7.2,6.3-11.8,11.6-13.9
		c10.2-4,22.4,2.9,22.5,3c0.2,0.2,0.6,0.2,0.8,0c9.2-4.9,17.6-6.1,25-3.7c10.5,3.4,15.4,13.1,15.4,13.1c0.1,0.2,0.3,0.4,0.5,0.5
		c5.5,1.7,7.9,7.7,8.3,12.8c0.5,6.3-0.8,9.8-4.8,12.8l-0.1,0.1c-2.1,1.3-4,2.1-3.9,2.6c0.1,0.3,1.5,0.3,3.2-0.3
		c8.1,12.1,2.6,22.1,0.8,25c-0.4-0.2-0.8-0.5-1.1-0.7c-0.3-0.1-6.5-2.1-11,2.5c-5.5-6.3-2-15.7-1.9-15.7c0.2-0.5,0-0.9-0.5-1.1
		c-6.9-3.4-4.3-12.8-4.2-13.3c0.1-0.3,0-0.6-0.2-0.8c-0.2-0.2-0.5-0.3-0.8-0.3c-8.5,1.3-15.4-0.5-20.7-5.3c-0.1,0-0.1-0.1-0.2-0.1
		c-4.3-4-5.6-8.8-6.1-8.6c-0.3,0-0.1,2.1,1.2,4.8c-10.2,5.2-19,6-24.6,5.7c0,0,0,0-0.1,0s-0.1,0-0.2,0c-6-0.1-10.6-1.8-10.8-1.4
		c-0.2,0.2,0.6,0.7,1.9,1.3v0.1c0,0.1-0.2,5.8-0.8,13.3C455.1,336.1,452.1,330.1,452.6,324.4z M463.5,338.4
		c5.1-2.4,9.8-1.1,10.5-0.8c0.8,0.7,0.5,1.8,0.4,2.4c-1.6-0.2-6.6-0.3-11.1,1.5C463.4,340.4,463.4,339.4,463.5,338.4z M459.5,365.3
		c1.8-6.9,3-15.3,3.6-22.3c5.2-2.4,11.6-1.7,11.7-1.7c0.3,0,0.5-0.2,0.7-0.4c0.1-0.2,1.3-3-0.7-4.6c-0.1-0.1-0.2-0.1-0.2-0.1
		c-0.2-0.1-5.3-1.8-11,0.6c0.2-3.7,0.3-6.4,0.4-7.5c1.8,0.6,4.4,1.1,7.1,1.1c0.1,0,0.1,0,0.2,0.1c0.5,0,1.1,0,1.8,0
		c5.9,0,14.2-1.1,23.7-6c0.7,1.1,1.6,2.3,2.8,3.4c0.1,0.1,0.1,0.2,0.2,0.2c3.7,3.4,10.4,7.2,20.8,6c-0.5,3-1.1,10.2,4.7,13.7
		c-0.8,2.6-3.1,11.5,3.2,17.6c0.2,0.2,0.4,0.3,0.7,0.2c0.2,0,0.5-0.2,0.6-0.3c3.8-4.5,9.5-2.7,9.7-2.7c1.1,0.5,1.8,1.3,2.1,2.4
		c0.9,3.1-1.6,7.3-1.7,7.3c-1.9,2.8-3.8,4.4-5.7,4.4c-2.1,0.1-3.9-1.5-5-2.9c-0.1-0.1-0.1-0.1-0.2-0.1c-1.1-1.4-2.1-2.5-2.6-2.4
		c-0.4,0.2-0.1,1.5,0.8,2.9c-16.6,18.9-36,18-37.3,17.9C462.7,384.9,459.8,367.1,459.5,365.3z M489.6,393.8c0.1,0,0.1,0,0.2,0
		c0,0,0.5,0,1.3,0c1.8,0,5.6-0.2,10.4-1.4v3.1c0.1,1-0.5,2.1-1.7,2.9c-1.3,0.9-3.1,1.5-5,1.7c-1.9,0.2-3.7-0.2-5.1-0.9
		c-1.3-0.7-2-1.6-2.1-2.6l-0.1-3.5C488.2,393.4,488.9,393.7,489.6,393.8z M413.1,380.4c0-1.8,0.7-6.9,3.2-7.3c1-0.2,4-0.5,5.1,0.8
		c0,0,1,1.1,0.2,2.3l-0.1,0.1c-1.6,3.7-3.9,10.2-1.8,11.5c0.2,0.1,3,2.4,2.1,8.6c-0.6,4.7-2.2,8-4.5,9.4c-0.8,0.5-1.6,0.7-2.3,0.8
		c1.8-2.2,1.3-5.5,0.5-7.6c2.5-3.2,1.2-7.5,0.5-9.1c2.4-2.4,0.8-6.6,0.8-6.9c-0.1-0.2-0.2-0.3-0.3-0.4c-1.1-0.9-2.4-1.5-3.6-1.9
		C413.1,380.7,413.1,380.6,413.1,380.4z M404.9,405.3c-3.4-2.1-0.3-8.1-0.3-8.2c0.2-0.2,0.2-0.5,0-0.8c-1.8-3.9,0.5-8.1,0.5-8.2
		c0.1-0.2,0.2-0.4,0.1-0.6c-0.5-2.7,0.7-5,1.2-5.8c0.2,0,0.5,0,0.7,0c1.6,0,5.6,0.2,8.2,2.2c0.2,0.8,1,3.8-0.7,5
		c-2.9-0.4-5.1-0.4-5.2,0c-0.1,0.4,2.1,1,5,1.4c0.4,0.9,2.1,5-0.3,7.8c-2.3-0.3-4.1-0.3-4.2,0.1c-0.1,0.3,1.7,0.9,4,1.3
		c0.4,1.1,1.8,5.3-1.1,6.9c-0.3,0-1.1,0.1-2,0.1C408.2,406.5,406.2,406,404.9,405.3z M419.4,406.7c2.2-1.9,3.7-5.2,4.3-9.9
		c0.2-1.8,0.2-3.2,0-4.4c11.5,6.7,24.7,8.7,36.2,8.7c12.8,0,23.2-2.4,26.3-3.2c0.4,1.2,1.4,2.3,2.8,3.1c1.5,0.8,3.2,1.2,5.1,1.2
		c0.3,0,0.7,0,1,0c2.3-0.2,4.4-0.9,5.9-2.1c1.3-1,2.1-2.1,2.3-3.4c4.6,0.8,25,4.6,37,16.3H439.3
		C430.8,412.9,421.9,408.2,419.4,406.7z M415.1,533.5c-1.8-2.6-1.7-6.1-0.9-8.3c0.8-2.1,2.7-4.6,5.5-4.4l97.7,0.5
		c-0.8,0.8-1.5,1.9-2,3.3c-1.1,2.8-1,5.8,0.2,8.2c0.7,1.5,1.8,2.7,3.2,3.7h-97.3C418.7,536.6,416.5,535.5,415.1,533.5z M519.3,432.7
		L519.3,432.7h-77.7c0.2-4.3,0.8-7.6,2-10.2h77.6C520.2,425.1,519.5,428.5,519.3,432.7z M441.5,434.4h77.7l0,0
		c-0.2,7.9,0.9,18.2,3.4,30.8c4.2,24.2,5.1,42.8,2.7,55.5c-1.2-1-2.4-1.1-2.5-1.1c-0.2,0-0.2,0-0.4,0c-0.1,0-0.1,0-0.2,0h-0.5
		c-0.2,0-0.2,0-0.4,0l-73.5-0.4c2.1-12.8,1.1-31.1-3-54.3C442.5,452.3,441.4,442.1,441.5,434.4z M521.6,521.4h0.4c0.2,0,0.5,0,0.7,0
		c0.2,0,3.1,0.4,3.1,4.9h-8.9c0.1-0.3,0.2-0.7,0.3-1C518.1,522.7,519.5,521.5,521.6,521.4z M532.5,533.5c-5,4.4-10.4,2.7-10.6,2.7
		c-2.1-0.8-3.8-2.1-4.7-4c-0.6-1.2-0.8-2.7-0.7-4h10.2c0.5,0,0.8-0.4,0.9-0.8c0.2-2.1-0.2-3.5-0.8-4.6l0,0
		c2.8-12.9,2.1-32.3-2.4-57.6c-4.1-21.5-4.5-36-1.1-43c0.2-0.3,0.2-0.6-0.1-0.8c-0.2-0.2-0.5-0.4-0.8-0.4H443
		c-0.3,0-0.7,0.2-0.8,0.5c-3.6,7.3-3.2,22.1,0.9,44.1c4,23,5,41.1,3,53.7c0,0.1,0,0.2,0,0.2l-9.5-0.1c2.2-11,2.8-35.8-2.6-56.9
		c-0.1-0.3-9.5-33.7-1.4-44.4c1.6-2.1,3.7-3.1,6.6-3.1h99.9c-3.2,2.4-5.6,7.8-5.2,20.2c-2.5,0.3-5.9,1.1-8,3.1
		c-0.2,0.1-0.2,0.2-0.2,0.4c-0.1,0.2-1.5,4.7,1,6.9c-0.6,1.7-1.8,6,0.9,9.2c-0.8,2.7-1.2,7.3,2.7,9c0.1,0.1,0.2,0.1,0.3,0.1
		c0,0,0.3,0,0.7,0c1.3,0,4-0.1,6.3-0.7C545.7,510.5,539.3,527.6,532.5,533.5z M531.2,461.8c-0.2,0-0.4,0-0.5,0
		c-3.1-1.5-1.8-6-1.5-6.9c2.1-0.5,3.7-1.1,3.6-1.4c-0.1-0.3-1.8-0.3-3.9,0.1c-2.5-2.7-1-7-0.6-7.9c2.2-0.5,3.9-1.1,3.8-1.5
		s-1.8-0.3-4.1,0.1c-1.8-1.1-1.1-4.2-0.9-5.1c2.7-2.2,7.3-2.6,9.2-2.7c0,4.7,0.5,8.5,0.8,8.4c0.4,0,0.5-3.7,0.5-8.2l6.1,1.8
		c3.7,10.2,1.5,16.6,1.3,17.3c-0.9,1.3-4.4,3.7-5.6,4.6C537.3,461.8,532.6,461.8,531.2,461.8z"/>
	<path fill="#3A3A3A" d="M533.1,368c0.1,0.4,1.3-1.4,2.6-1.8c0.6,1.9-0.7,3.7-0.3,4c0,0.3,2.1-1.1,1.8-3.8l0.1,0.1
		c0.8,0.6,1,2.6-0.1,4.5v0.1c-0.8,1.4-1.8,2.1-1.8,2.5c0,0.4,1.8-0.1,2.9-1.8l0.1-0.1c1.4-2.4,1.3-5.3-0.3-6.4
		c-0.2-0.2-0.4-0.2-0.5-0.2C533.3,364,532.8,368.6,533.1,368z"/>
	<path fill="#3A3A3A" d="M481.9,365.2c0.2-0.8-5.3,2.7-6-2.7v-0.1c0-1.1,0.3-2,0.9-2.4c1.1-0.8,3.3-0.5,4-0.2c0.5,0.2,1-0.2,1.1-0.6
		c0-0.1,0-0.2,0-0.2c2.8-10.1-0.4-17.9-0.5-17.8c-0.8-0.1,1.4,7.9-1,16.7c-1.1-0.2-3.2-0.4-4.7,0.8c-1.1,0.8-1.7,2.1-1.6,3.9
		c0,0.1,0,0.2,0.1,0.2c0.1,3,3.4,5.3,5.3,4.2C481.2,366.2,482,365.4,481.9,365.2z"/>
	<path fill="#3A3A3A" d="M507.7,355.2c-0.8,0.1-1.5-0.5-1.6-1.4c0-0.4,0.1-0.8,0.3-1c0,0,0,0-0.1,0c-1.2,0.1-2.1,1.1-2.1,2.4
		s1.1,2.1,2.4,2.1c1.2-0.1,2.1-1.1,2.1-2.4c0-0.1,0-0.1,0-0.2C508.5,355,508.1,355.2,507.7,355.2z"/>
	<path fill="#3A3A3A" d="M471.7,352.3c-0.8,0.1-1.4-0.5-1.5-1.2c0-0.3,0.1-0.7,0.3-0.9c0,0,0,0-0.1,0c-1.1,0.1-1.9,1.1-1.8,2.1
		c0.1,1.1,1.1,1.9,2.1,1.8c1.1-0.1,1.9-1.1,1.8-2.1c0-0.1,0-0.1,0-0.2C472.4,352.1,472.1,352.3,471.7,352.3z"/>
	<path fill="#3A3A3A" d="M502.1,341.6c0.8,0,8,0.1,12.8,3.7c0.2,0.1,0.2,0.2,0.4,0.2c0.2,0,0.2,0,0.4-0.1c2.2-1.5,2.1-3.7,2.1-3.8
		c0-0.2-0.1-0.3-0.2-0.5c-4-4-8.6-4.8-11.7-4.8c-1.8,0-3,0.3-3.1,0.3s-0.2,0.1-0.2,0.1c-2.1,1.4-1.2,4.4-1.1,4.5
		C501.4,341.4,501.8,341.6,502.1,341.6z M503.1,337.8c0.3-0.1,1.3-0.2,2.6-0.2c2.7,0,6.9,0.8,10.5,4.3c0,0.5-0.2,1.4-1.1,2.1
		c-4.5-3.2-10.7-3.7-12.7-3.7C502.4,339.6,502.4,338.5,503.1,337.8z"/>
	<path fill="#3A3A3A" d="M492.4,387.3c4.1,0,7.1-1.5,9.2-3.5l0.1-0.1c0,0,0-0.1,0.1-0.1c2.7-2.6,3.9-6.1,4.5-8.4
		c0-0.1,0.1-0.2,0.1-0.2v-0.1c0.3-1.4,0.4-2.2,0.4-2.3c0-0.4-0.2-0.8-0.6-0.8c-3.7-0.9-8-1.3-12.8-1.3c-7.7,0-14.1,1.2-14.2,1.2
		c-0.3,0.1-0.6,0.3-0.6,0.7c-0.5,3.7,0.2,6.8,2.2,9.3c3.6,4.7,9.9,5.5,10.2,5.5C491.4,387.3,491.9,387.3,492.4,387.3z M491,385.7
		c-0.1,0-2.9-0.4-5.7-2.1c1.3-0.7,4-1.6,6.8,0.2c0.2,0.2,0.6,0.2,0.8,0c0.2-0.1,4-2.5,7-0.5c-1.8,1.5-4.2,2.5-7.5,2.5
		C491.9,385.8,491.4,385.7,491,385.7z M479.9,373.2c1.7-0.3,7.1-1.1,13.4-1.1c4.4,0,8.3,0.4,11.8,1.1c-0.1,0.4-0.2,0.8-0.2,1.4v0.1
		c-0.2,1.1-0.7,1.9-1.4,2.2c-0.3,0.2-0.5,0.2-0.8,0.2c0-0.1,0-0.2,0-0.2c-0.1-0.8-0.8-1.1-0.9-1.1c-0.1,0-0.1-0.1-0.2-0.1
		c-8.2-1.8-19.1-0.1-19.5,0c-0.1,0-0.2,0.1-0.3,0.1c-0.5,0.3-0.6,0.8-0.5,1.4c-0.5,0-0.8-0.2-0.9-0.2c0,0-0.1,0-0.1-0.1
		C479.8,375.8,479.8,374.6,479.9,373.2z M481.8,380.7c-0.5-0.6-0.8-1.3-1.1-2c0.2,0,0.2,0,0.4,0c0.4,0,0.8-0.1,1.3-0.2
		c0.2-0.1,0.4-0.2,0.5-0.5c0.1-0.2,0.1-0.5-0.1-0.7c0-0.1-0.1-0.2-0.1-0.2c2.2-0.3,11.4-1.5,18.2,0c-0.2,0.2-0.3,0.5-0.2,0.7
		c0.1,0.3,0.2,0.5,0.5,0.6c0.1,0,1.1,0.4,2.4,0c-0.6,1.2-1.4,2.5-2.4,3.6c-3-2.2-6.6-1.1-8.6,0.1c-4-2.2-7.6-0.2-8.6,0.5
		C483.1,382.2,482.4,381.5,481.8,380.7z"/>
	<path fill="#3A3A3A" d="M595,485.5l-0.1-0.3c-0.1-0.8-0.1-1.6-0.1-2.4c0-1.1,0-2.4-0.2-3.5c-0.2-0.7-0.4-1.3-0.6-1.9
		c-0.6-1.7-1-2.7-0.2-3.8c0.2-0.2,0.2-0.4,0.2-0.6c0,0,0,0,0-0.1c0-0.5-0.4-0.9-0.8-0.9l-27.6-1.5c-0.1,0-0.2,0-0.3,0.1l-8.9,2.9
		l0,0c-0.1,0-0.2,0.1-0.2,0.2l0,0c-0.1,0.1-0.1,0.1-0.2,0.2c0,0,0,0.1-0.1,0.1l0,0c-1.2,1.9-0.5,3.7,0.1,5.3
		c0.2,0.5,0.5,1.1,0.6,1.8c0.2,0.9,0.2,2,0.2,3.1c0,0.9,0,1.8,0.1,2.7l0.1,0.3c0.4,2.7,0.5,3.4-0.5,5.4c-0.4,0.8-0.7,1.5-0.9,2.2
		c-0.1,0-0.1,0-0.2,0c-2.4,1.1-3.6,2.4-3.6,3.8c0,0,0,0,0,0.1l0,0l3.7,38.1c0,3.6,8.8,5.5,17.5,5.5s17.5-1.9,17.5-5.4l3.7-38.2l0,0
		c0,0,0,0,0-0.1c0-0.6-0.2-1.2-0.7-1.8c-0.1-0.1-0.1-0.1-0.2-0.2c0.2-1.5,0.3-2.7,1.2-4.6C595.5,489.4,595.4,488.2,595,485.5z
		 M565.5,472.1l23,1.2l-4.5,1.4l-22.7-1.2L565.5,472.1z M556.6,496.6v0.4c8.2,0.5,15,0.7,15,0.3s-6.6-1.1-14.7-1.7
		c0.2-0.8,0.5-1.5,0.9-2.4c1.3-2.6,1.1-3.7,0.7-6.5l-0.1-0.3c-0.1-0.4-0.1-0.8-0.1-1.1c7.9,0.5,14.3,0.6,14.4,0.2
		c0-0.4-6.3-1.1-14.4-1.6c0-1.1,0-2.4-0.2-3.4c-0.1-0.2-0.2-0.5-0.2-0.6c7.6,0.5,13.7,0.5,13.7,0.2c0-0.4-6.3-1.1-14.2-1.6
		c-0.5-1.4-0.8-2.3-0.4-3.2l25.7,1.4c-0.4,1.5,0.2,2.8,0.6,4.1c0.2,0.5,0.5,1.1,0.6,1.8c0.2,0.9,0.2,2,0.2,3.1c0,0.9,0,1.8,0.1,2.7
		l0.1,0.3c0.2,1.3,0.3,2.1,0.2,2.8c-2.4-0.2-4.4-0.2-4.4,0.2c-0.1,0.3,1.7,0.8,4,1.1c-0.2,0.4-0.3,0.8-0.5,1.2
		c-1.1,2.1-1.2,3.7-1.5,5.3c-0.1,1-0.2,2-0.5,3.3c0,0.1,0,0.2,0,0.2c-2.6,0.4-5.6,0.6-9.1,0.6c-7.7,0-13.4-1.1-16.6-2.4
		c0.2-1.1,0.4-2.1,0.5-2.9C556.6,497.4,556.6,496.9,556.6,496.6z M588.4,536.6c0,1.3-5.4,3.7-15.7,3.7c-10.3,0-15.7-2.4-15.7-3.8
		l-3.4-35.1c3.6,2.4,11.4,3.6,19.1,3.6c7.7,0,15.5-1.2,19.1-3.6L588.4,536.6z M592.7,491.1c-1.1,2.1-1.2,3.7-1.5,5.3
		c-0.1,1-0.2,2-0.5,3.3c0,0.2,0,0.2,0,0.4c-1.4,0.8-3.8,1.7-7,2.2c0.2-1.1,0.4-2.1,0.5-3c0.2-1.6,0.3-2.8,1.2-4.7
		c1.3-2.6,1.1-3.7,0.7-6.5l-0.1-0.3c-0.1-0.3-0.1-0.6-0.1-0.9c2.4-0.7,4.2-1.5,4.1-1.9c-0.1-0.3-1.9-0.2-4.1,0.5v-0.1
		c0-1.1,0-2.4-0.2-3.5c-0.2-0.7-0.4-1.3-0.7-1.9c-0.6-1.5-0.9-2.5-0.4-3.6l6.9-2.1c-0.1,0.8,0.1,1.7,0.3,2.4
		c-1.6,0.6-2.7,1.2-2.6,1.5c0.1,0.3,1.4,0.2,3.1-0.3c0.2,0.5,0.4,1.1,0.5,1.6c0.2,0.9,0.2,2,0.2,3.1c0,0.9,0,1.8,0.1,2.7l0.1,0.3
		C593.6,488.4,593.7,489.1,592.7,491.1z"/>
	<g opacity="0.58">
		<path fill="#79C9B6" d="M513,442.8h-68.2c-0.1-1.9-0.1-3.6,0-5.1h68.3C513,439.2,513,440.9,513,442.8z"/>
	</g>
</g>
</svg>
