<?xml version="1.0" encoding="utf-8"?>
<!-- Generator: Adobe Illustrator 18.0.0, SVG Export Plug-In . SVG Version: 6.00 Build 0)  -->
<!DOCTYPE svg PUBLIC "-//W3C//DTD SVG 1.1//EN" "http://www.w3.org/Graphics/SVG/1.1/DTD/svg11.dtd">
<svg version="1.1" id="Layer_1" xmlns="http://www.w3.org/2000/svg" xmlns:xlink="http://www.w3.org/1999/xlink" x="0px" y="0px"
	 viewBox="23.8 26.8 299.9 192.5" enable-background="new 23.8 26.8 299.9 192.5" xml:space="preserve">
<path fill="#25B89B" d="M317.1,162.6h-54.3l0.2-99c0-20.3-16.5-36.9-36.9-36.9h-164c-0.1,0-0.1,0-0.2,0c-0.1,0-0.3,0-0.4,0h-1.4
	c-20,0-36.3,16.3-36.3,36.3c0,18.8,14.4,34.4,32.8,36.2c0.5,0.1,1,0.2,1.5,0.2c0.4,0,0.8,0,1.1-0.1c0.3,0,0.6,0,0.9,0h25.2V186
	c0,0.9,0.2,1.8,0.6,2.6c3,17.4,18.1,30.7,36.3,30.7c1.3,0,2.5-0.1,3.7-0.2c0.5,0.1,1,0.2,1.6,0.2h159.3c20.3,0,36.9-16.5,36.9-36.9
	v-13.2C323.6,165.5,320.7,162.6,317.1,162.6z M249.7,143.8l-44.2-42.4l44.3-35.9L249.7,143.8z M246.4,51.4L181,104.4L95.1,48.5
	c-1.4-3.2-3.3-6.1-5.5-8.7h136.5C234.7,39.8,242.3,44.5,246.4,51.4z M98.3,66.3l53,34.5l-53,44.4V66.3z M36.8,63.1
	c0-12.8,10.4-23.2,23.2-23.2h1.4c8.6,0,16.1,4.6,20.3,11.4H58.1c-3.6,0-6.5,2.9-6.5,6.5c0,3.6,2.9,6.5,6.5,6.5c6.1,0,11,4.9,11,11
	c0,5.8-4.5,10.5-10.3,10.9C46.6,85.6,36.8,75.5,36.8,63.1z M79.5,86.3c1.7-3.3,2.7-7,2.7-11l0,0c0,0,0,0,0,0c0-4-1-7.7-2.7-11h5.7
	v22L79.5,86.3L79.5,86.3z M145.9,169.1v13.2c0,13.1-10.7,23.8-23.8,23.8c-13.1,0-23.8-10.7-23.8-23.8v-20.2l64.5-54l15,9.7
	c1.1,0.7,2.3,1.1,3.6,1.1c1.5,0,2.9-0.5,4.1-1.5l9.7-7.9l54.4,52.2l0,0.7h-97.2C148.8,162.6,145.9,165.5,145.9,169.1z M310.5,182.4
	c0,13.1-10.7,23.8-23.8,23.8H150.3c5.4-6.4,8.7-14.7,8.7-23.8v-6.7h151.5V182.4z"/>
</svg>
