<?xml version="1.0" encoding="utf-8"?>
<!-- Generator: Adobe Illustrator 18.0.0, SVG Export Plug-In . SVG Version: 6.00 Build 0)  -->
<!DOCTYPE svg PUBLIC "-//W3C//DTD SVG 1.1//EN" "http://www.w3.org/Graphics/SVG/1.1/DTD/svg11.dtd">
<svg version="1.1" id="Layer_1" xmlns="http://www.w3.org/2000/svg" xmlns:xlink="http://www.w3.org/1999/xlink" x="0px" y="0px"
	 viewBox="112.2 70.7 464.1 148.8" enable-background="new 112.2 70.7 464.1 148.8" xml:space="preserve">
<g id="Logo">
	<g>
		<g opacity="0.7">
			<rect x="112.2" y="168.3" fill="#3D515B" width="31.7" height="15.9"/>
			<rect x="159.8" y="168.3" fill="#3D515B" width="31.7" height="15.9"/>
			<rect x="112.2" y="136.6" fill="#3D515B" width="79.3" height="15.9"/>
			<rect x="112.2" y="104.9" fill="#3D515B" width="47.6" height="15.9"/>
			<rect x="175.6" y="104.9" fill="#3D515B" width="15.9" height="15.9"/>
		</g>
		<g>
			<path fill="#404041" d="M421.6,104.8c-25.5,0-38.6,18-38.6,40.2c0,22.2,12.8,40.2,38.6,40.2s38.6-18,38.6-40.2
				C460.2,122.8,447,104.8,421.6,104.8z M440.8,145.1L440.8,145.1c0,14.3-4.8,25.8-19.3,25.8s-19.2-11.6-19.3-25.8l0,0c0,0,0,0,0,0
				s0,0,0,0l0,0c0-14.3,4.8-25.8,19.3-25.8C436,119.2,440.8,130.7,440.8,145.1L440.8,145.1C440.8,145,440.8,145,440.8,145.1
				C440.8,145.1,440.8,145.1,440.8,145.1z"/>
			<path fill="#404041" d="M307.6,184.2V73c0,0,14.7-2.1,15.8-2.2c1.3-0.2,3,0.7,3,2.6c0,2,0,41.2,0,41.2c3-2.9,6.4-5.2,10-7
				c3.7-1.8,7.9-2.7,12.9-2.7c4.3,0,8,0.7,11.3,2.2c3.3,1.4,6.1,3.5,8.3,6.1c2.2,2.6,3.9,5.7,5,9.4c1.1,3.6,1.7,7.6,1.7,12v49.7
				h-18.8v-49.7c0-4.8-1.1-8.5-3.3-11.1c-2.2-2.6-5.5-3.9-9.9-3.9c-3.2,0-6.3,0.7-9.1,2.2c-2.8,1.5-5.5,3.5-8.1,6v56.5H307.6z"/>
			<path fill="#404041" d="M558.6,185.2c-12.9,0-21-7.5-21-21.6V122h-14.6c0,0,3.1-10.7,3.3-11.6c0.2-0.8,0.9-1.7,2.2-1.9
				s9-1.3,9-1.3l3.6-22.8c0,0,10.5-1.5,12.2-1.7c1.6-0.2,3,0.9,3,2.6c0,1.7,0,21.9,0,21.9h18.4V122h-18.4v41.1
				c0,5.6,3.4,7.8,6.7,7.8c2,0,4.7-1.1,6.8-2c1.3-0.6,3.2-0.2,3.7,1.6c0.4,1.6,2.8,9.9,2.8,9.9C574.3,181.6,567.8,185.2,558.6,185.2
				z"/>
			<path fill="#404041" d="M512.6,122.3c-3.7-1.2-10.6-3.1-17.1-3.1c-6.7,0-11.9,2.3-11.9,7.9c0,6.9,11.3,8.9,19.1,11.8
				c5.2,1.9,19.1,5.6,19.1,20.5c0,18.1-15.1,25.9-31.1,25.9c-16.1,0-25.6-6-25.6-6s2.5-8.8,3-10.5c0.5-1.6,2.3-2.1,3.4-1.7
				c4.1,1.6,11.6,3.8,20.1,3.8c8.6,0,12.7-2.6,12.7-8.2c0-7.4-11.5-9.7-19.2-12.1c-5.3-1.7-19.2-5.5-19.2-22
				c0-16.2,14.2-23.8,29.4-23.8c12.9,0,19.2,2.7,23.9,5.1c0,0-2.6,9.1-3,10.5C515.6,122.1,514.3,122.8,512.6,122.3z"/>
			<path fill="#404041" d="M300.2,107.5c0-1.8-1.5-2.8-2.9-2.6c-6.3,0.7-10.8,3.7-13.7,6.5c-5.7-4.5-13.7-6.6-22.6-6.6
				c-17.9,0-31.8,8.6-31.8,27.4c0,10.8,4.6,18.2,11.9,22.6c-5.4,2.6-9,8-9,13.4c0,8.9,7.1,11.8,7.1,11.8s-12.4,6-12.4,18
				c0,15.4,14.1,21.6,31.4,21.6c24.9,0,42-10.3,42-29.2c0-11.6-8.9-18-28.3-18.8c-11.5-0.5-19-0.9-20.8-1.5
				c-2.4-0.8-3.6-2.8-3.6-4.9c0-2.4,2-4.6,5-6.2c2.7,0.5,5.5,0.7,8.5,0.7c17.9,0,31.8-8.6,31.8-27.4c0-4.6-0.8-8.5-2.3-11.9
				c2.6-1.4,5.9-2.4,9.7-2.4C300.2,117.9,300.2,109.1,300.2,107.5z M251,184.2c0,0,9.4,0.4,18.8,0.8c10.5,0.5,13.8,2.8,13.8,8.2
				c0,6.7-9.1,13.1-21.9,13.1c-12.1,0-18.2-4.2-18.2-11.3C243.4,191.1,245.6,186.6,251,184.2z M261.1,146.5
				c-8.5,0-15.1-4.5-15.1-14.3c0-9.8,6.6-14.3,15.1-14.3c8.5,0,15.1,4.5,15.1,14.3S269.5,146.5,261.1,146.5z"/>
		</g>
	</g>
</g>
</svg>
