<?xml version="1.0" encoding="utf-8"?>
<!-- Generator: Adobe Illustrator 18.0.0, SVG Export Plug-In . SVG Version: 6.00 Build 0)  -->
<!DOCTYPE svg PUBLIC "-//W3C//DTD SVG 1.1//EN" "http://www.w3.org/Graphics/SVG/1.1/DTD/svg11.dtd">
<svg version="1.1" id="Layer_1" xmlns="http://www.w3.org/2000/svg" xmlns:xlink="http://www.w3.org/1999/xlink" x="0px" y="0px"
	 viewBox="0 0 501.9 114.1" enable-background="new 0 0 501.9 114.1" xml:space="preserve">
<g>
	<path d="M27.8,6.2c5.5-3.1,11-5,16.7-5.6c5.7-0.6,11.3-0.6,16.8-0.1C66.9,1.1,72.2,2,77.5,3.2c5.2,1.2,10.2,2.1,14.9,2.7
		c4.7,0.6,8.9,0.6,12.9,0c3.9-0.6,7.3-2.4,10.3-5.5c-2.6,4.3-5.4,7.6-8.4,10c-3,2.4-6.2,4.1-9.4,5.1s-6.7,1.4-10.1,1.3
		c-3.5-0.1-7-0.5-10.6-1.2c-2.4,0.9-4.5,2.9-6.4,5.9c-1.9,3-3.7,6.7-5.4,10.9c-1.7,4.2-3.3,8.9-4.9,14c-1.6,5.1-3.3,10.3-5.1,15.6
		c-1.8,5.2-3.8,10.3-5.9,15.2c-2.1,4.9-4.6,9.2-7.4,13C39,94,35.9,97,32.4,99.3c-3.5,2.3-7.5,3.5-12,3.5c-2.2,0-4.3-0.3-6.3-0.9
		c-2-0.6-3.7-1.5-5.1-2.8c-1.4-1.3-2.4-3-2.9-5c-0.5-2.1-0.4-4.6,0.6-7.6c0.6-2,1.6-3.6,3-4.7c1.4-1.1,3-1.9,4.8-2.3
		c1.8-0.4,3.5-0.4,5.2-0.1c1.7,0.3,3.1,1,4.3,2c1.1,1,1.8,2.2,1.9,3.8c0.1,1.6-0.5,3.3-2,5.4c-1.1-0.9-2.1-1.4-3.1-1.4
		c-1,0-1.8,0.3-2.6,0.8c-0.8,0.5-1.3,1.3-1.7,2.1c-0.4,0.9-0.5,1.7-0.3,2.6c0.2,0.8,0.6,1.6,1.4,2.2c0.8,0.6,2,0.9,3.6,0.9
		c2.2,0,4.2-1.2,6-3.5c1.8-2.3,3.5-5.4,5.1-9.1c1.6-3.8,3.1-8.1,4.7-13c1.5-4.9,3.1-9.8,4.8-14.9c1.7-5.1,3.5-10.1,5.4-15.1
		c1.9-5,4.1-9.4,6.5-13.4c2.4-4,5.1-7.3,8.1-9.8c3-2.6,6.4-4.1,10.3-4.5c-4-0.9-8-1.9-12-3c-4-1.1-7.9-1.9-11.7-2.3
		c-3.8-0.5-7.5-0.4-11.1,0.1c-3.6,0.5-6.9,2-10,4.2c-3.5,2.6-6.4,5.8-8.6,9.5c-2.2,3.7-3.8,7.7-4.9,11.8c-1,4.1-1.5,8.2-1.4,12.3
		c0,4.1,0.5,7.8,1.4,11.1c0.9,3.3,2.2,5.9,4,7.9c1.7,2,3.7,3,6,3c1.3,0,2.4-0.5,3.3-1.4c0.8-1,1.2-2.1,1.2-3.3
		c0-1.2-0.6-2.3-1.8-3.3c-1.1-1-3-1.4-5.6-1.4c0-2.3,0.9-4.1,2.6-5.4c1.8-1.3,3.7-2,5.9-2c2.1,0,4.1,0.7,5.9,2
		c1.8,1.3,2.6,3.5,2.6,6.6c0,1.9-0.5,3.7-1.4,5.4c-0.9,1.6-2.1,3-3.7,4.2c-1.5,1.2-3.2,2.1-5.2,2.8c-1.9,0.7-3.9,1-5.9,1
		c-5.4,0-9.7-1.2-13-3.7c-3.3-2.5-5.7-5.7-7.1-9.8c-1.4-4-1.8-8.5-1.3-13.5c0.5-5,1.9-10,4.1-15.1c2.2-5.1,5.3-9.9,9.3-14.5
		C17.5,13.1,22.3,9.3,27.8,6.2z"/>
	<path d="M96.4,45.1c-1.3,4.5-2.6,8.7-3.8,12.6c-1,3.4-2,6.7-3,10c-1,3.3-1.8,5.8-2.3,7.5c-1,3.2-1.4,5.2-1.1,6.1
		c0.3,0.9,0.7,1.4,1.4,1.6c0.9,0.3,2.1-0.1,3.6-0.9c1.5-0.9,2.7-2.4,3.7-4.6h1.8c-1,2.6-2.2,4.8-3.5,6.6c-1.3,1.8-2.8,3.3-4.2,4.4
		c-1.5,1.1-2.9,2-4.3,2.5s-2.6,0.8-3.7,0.8c-1.5,0-2.9-0.4-4.3-1.3c-1.3-0.9-2.1-2.7-2.3-5.4c-1.8,1.8-3.8,3.4-6.2,4.7
		c-2.4,1.3-4.7,2-6.9,2c-1.6,0-2.9-0.5-4-1.6c-1.1-1-1.8-2.6-2-4.8c-0.3-2.1,0-4.9,0.7-8.1c0.7-3.3,2-7.1,4-11.5
		c1.9-4.5,4.4-8.3,7.4-11.4c3-3.2,6.2-5.6,9.6-7.4c3.4-1.8,6.8-2.8,10.2-3.1C90.6,43.4,93.6,43.8,96.4,45.1z M74.7,79.4
		c0.3-1.3,0.6-2.6,1.1-4.2l7.4-24.8c-0.5-0.2-1-0.3-1.5-0.3c-1.3,0-2.7,0.8-4.2,2.3c-1.4,1.6-2.8,3.5-4,5.9c-1.3,2.4-2.4,5-3.5,7.7
		c-1.1,2.7-1.8,5.3-2.3,7.7c-0.5,2.4-0.6,4.4-0.4,5.9c0.2,1.6,0.9,2.3,2,2.3c0.8,0,1.8-0.3,2.8-0.9S74.1,79.9,74.7,79.4z"/>
	<path d="M110.8,87.3c0-0.1,0-0.2,0.1-0.3c0-0.1,0.1-0.2,0.1-0.4c-1.7,1.4-3.5,2.6-5.4,3.5c-1.9,0.9-3.8,1.4-5.5,1.4
		c-1.7,0-3-0.5-4.1-1.6c-1.1-1-1.7-2.6-2-4.8c-0.3-2.1,0-4.9,0.6-8.1c0.7-3.3,2-7.1,3.9-11.5c1.9-4.5,4.4-8.3,7.4-11.4
		c3-3.2,6.2-5.6,9.5-7.4c3.4-1.8,6.7-2.8,10.1-3.1c3.4-0.3,6.5,0.1,9.3,1.4c-1.3,4.8-2.8,9.6-4.3,14.5c-1.3,4.3-2.6,8.9-4.1,13.8
		c-1.5,4.9-2.8,9.6-4.1,14.2c-1.1,3.6-2.3,7-3.7,10.2c-1.3,3.2-2.9,6-4.8,8.4c-1.8,2.4-4,4.4-6.4,5.8c-2.4,1.4-5.2,2.1-8.4,2.1
		c-2.2,0-4.1-0.4-5.9-1.1c-1.7-0.8-3.1-1.8-4.1-3c-1-1.3-1.7-2.7-2-4.3c-0.3-1.6-0.1-3.4,0.6-5.2c0.9-2.7,2.5-4.5,4.6-5.4
		c2.1-0.9,4.2-1.2,6.2-0.8c2,0.4,3.5,1.4,4.7,3.1s1.2,3.6,0.1,6c-1.8-1.3-3.4-1.6-4.7-0.9s-2.1,1.6-2.5,2.8
		c-0.4,1.2-0.4,2.4,0.1,3.7c0.5,1.2,1.5,1.8,3.2,1.8c1.4,0,2.7-0.8,3.8-2.3c1.1-1.5,2.1-3.4,3-5.7c0.9-2.3,1.7-4.8,2.5-7.6
		C109.3,92.3,110,89.7,110.8,87.3z M107.9,82c0.8,0,1.8-0.3,2.8-0.9s1.8-1.2,2.5-1.6c0.8-2.5,1.5-5.1,2.3-7.7
		c0.8-2.6,1.6-5.3,2.3-7.9c0.8-2.6,1.5-5,2.1-7.3c0.7-2.3,1.3-4.3,1.8-6c-0.5-0.3-1.1-0.4-1.6-0.4c-1.3,0-2.6,0.8-4,2.3
		c-1.4,1.6-2.8,3.5-4.1,5.9c-1.3,2.4-2.5,5-3.5,7.7c-1,2.7-1.7,5.3-2.2,7.7c-0.5,2.4-0.6,4.4-0.4,5.9C106,81.2,106.7,82,107.9,82z"
		/>
</g>
<g>
	<path d="M198.7,24.4c1.7-4.8,3.6-8.7,5.5-11.8c2-3.1,4.3-4.7,7-5c-4.6-1.1-8.7-0.6-12.2,1.4c-3.5,2-6.6,5.1-9.3,9.2
		c-2.7,4.1-5.2,9-7.3,14.7c-2.1,5.7-4.1,11.7-6,17.9c-2.4,3.7-4.8,6.8-7.3,9.3c-2.5,2.5-5,3.7-7.4,3.7c-2.5,0-4.1-1.3-5-3.8
		c-2.5-7-1.4-11.8,0.5-20.4c1.6-6,3.3-11.5,5-16.3c1.7-4.8,3.6-8.7,5.5-11.8c2-3.1,4.3-4.7,7-5C170.1,5.5,166,6,162.5,8
		c-3.5,2-6.6,5.1-9.3,9.2c-2.7,4.1-5.2,9-7.3,14.7c-0.9,2.4-1.7,4.8-2.6,7.2c-1.1,3.9-2,8.7-2.2,12.3c-0.2,3.7,0.3,6.9,1.3,9.7
		c1,2.8,2.7,5.1,5,6.8c2.3,1.7,5.3,2.6,9,2.6c3.2,0,6.2-0.7,8.9-2.1c2.7-1.4,5.3-3.3,7.7-5.7c-1.6,5.5-3.2,10.7-4.9,15.8
		c-1.6,5.1-3.4,9.6-5.2,13.5c-1.8,3.9-3.9,7-6,9.3c-2.2,2.3-4.7,3.5-7.4,3.5c-3.2,0-5.5-0.5-7.1-1.6c-1.5-1.1-2.4-2.4-2.6-3.9
		s0-3,0.8-4.6c0.8-1.6,1.8-2.8,3.1-3.7c1.3-0.9,2.8-1.2,4.5-1.1c1.7,0.2,3.4,1.2,5.1,3.1c1.7-2.5,2.5-4.8,2.3-6.8
		c-0.1-2-0.9-3.7-2.2-5c-1.3-1.3-3.1-2.2-5.2-2.8c-2.1-0.5-4.3-0.6-6.5-0.2c-2.2,0.4-4.3,1.4-6.3,2.8c-2,1.5-3.5,3.5-4.5,6.1
		c-1.3,3.3-1.8,6.2-1.3,8.9c0.5,2.6,1.5,4.9,3,6.8c1.6,1.9,3.6,3.3,6,4.3c2.5,1,5.1,1.5,7.7,1.5c5.9,0,11-1.4,15.4-4.3
		c4.4-2.9,8.2-6.6,11.5-11.2c3.3-4.6,6.2-9.9,8.6-15.9c2.4-6,4.6-12.1,6.5-18.3c1.9-6.3,3.7-12.4,5.3-18.5
		C195.3,34.6,196.9,29.2,198.7,24.4z"/>
	<path d="M225.3,50.8c-0.7-2.1-1.9-3.8-3.7-5c-1.8-1.2-4.2-1.8-7.4-1.8c-2.4,0-4.7,0.6-7.1,1.8c-2.4,1.2-4.7,2.9-6.8,5
		c-2.1,2.1-4.1,4.7-5.8,7.6c-1.7,2.9-3,6-4,9.3c-0.9,3.3-1.6,6.4-1.9,9.3c-0.3,2.9-0.2,5.4,0.5,7.6c0.7,2.1,1.9,3.8,3.7,5
		c1.8,1.2,4.2,1.8,7.4,1.8c2.3,0,4.6-0.6,6.9-1.8c2.4-1.2,4.6-2.9,6.7-5c2.1-2.1,4.1-4.7,5.9-7.6c1.8-2.9,3.1-6,4.2-9.3
		c0.9-3.3,1.6-6.4,1.9-9.3C226.2,55.5,226,53,225.3,50.8z M213.7,59.5c-0.4,2.7-1.1,5.6-2,8.6c-0.9,3.1-1.9,5.9-3,8.6
		c-1.1,2.7-2.2,4.9-3.3,6.7c-1.1,1.8-2.2,2.6-3.2,2.6c-0.9,0-1.5-0.9-1.6-2.6c-0.2-1.8-0.1-4,0.3-6.7c0.4-2.7,1-5.6,1.8-8.6
		c0.8-3.1,1.7-5.9,2.8-8.6c1-2.7,2.2-4.9,3.3-6.7c1.2-1.8,2.3-2.6,3.4-2.6c1.1,0,1.7,0.9,1.9,2.6C214.3,54.6,214.2,56.8,213.7,59.5z
		"/>
	<path d="M296.8,53.9c-1.3,0.1-2.5-0.2-3.5-0.9c-1-0.7-1.7-1.9-2.2-3.5c-0.5-1.6-0.4-4,0.1-7l-10.8,7.2L282,44h-11.5l-10.4,34.7
		c-0.9,1.5-1.9,2.6-3,3.3c-1.5,0.9-2.6,1.2-3.3,0.9c-0.3-0.1-0.7-0.2-0.9-0.4c-0.3-0.2-0.5-0.6-0.6-1.1c-0.1-0.5-0.1-1.3,0.1-2.3
		c0.2-1,0.5-2.2,1-3.8c0.5-1.7,1.3-4.2,2.3-7.7c1-3.4,2.1-6.9,3.2-10.5c1.3-4,2.6-8.4,4-13.1h-11.3l-9.7,31.2l-0.3,0.9
		c-0.7,1.7-1.5,3.2-2.5,4.7c-1,1.4-1.7,2.1-2.2,2.1c-0.4,0-0.7-0.5-0.9-1.4c-0.2-1,0.2-3,1.2-6.2c0.5-1.7,1.3-4.2,2.3-7.7
		c1-3.4,2.1-6.9,3.1-10.5c1.2-4,2.5-8.4,3.9-13.1h-11.3l-9.4,31.2c-1,3.4-1.5,6.1-1.5,8.3c0,2.1,0.3,3.8,0.9,5
		c0.6,1.2,1.4,2,2.5,2.5c1,0.5,2.1,0.7,3.2,0.7c1.9,0,3.7-0.7,5.2-2c1.5-1.3,3-3.3,4.4-5.9c0,1.6,0.2,2.9,0.5,3.9
		c0.3,1,0.8,1.8,1.4,2.4c0.6,0.6,1.3,1,2.1,1.3c0.8,0.3,1.6,0.4,2.5,0.4c1.2,0,2.5-0.3,3.8-0.8c1.4-0.5,2.8-1.3,4.2-2.5
		c1.1-0.9,2.2-2,3.3-3.3l-2.1,6.9h11.5l11.1-37.3c0.3,2.7,1.2,4.7,2.5,6c1.3,1.3,2.9,1.9,4.9,1.8c2-0.1,4.2-1,6.7-2.5
		c2.5-1.6,5.1-3.9,7.8-7.1C299.4,53.4,298.1,53.7,296.8,53.9z"/>
</g>
<g>
	<path d="M342.8,19.7c2.7,0.9,5.1,1.3,7.2,1s3.9-0.9,5.2-1.9c1.3-1,2.2-2.2,2.8-3.7c0.5-1.4,0.6-2.8,0.1-4.2c-0.5-1.4-1.4-2.6-3-3.8
		s-3.6-1.9-6.2-2.3c-4-0.5-7.4,0.1-10.2,1.8c-2.8,1.7-4.6,4-5.5,7c-0.9,3-0.7,6.3,0.7,10c1.3,3.7,4.1,7.2,8.3,10.5
		c5.2,4.2,9,8.9,11.5,14.2c2.4,5.2,3.7,10.5,3.8,15.9c0.1,5.3-0.8,10.5-2.8,15.4s-4.9,9.2-8.5,12.9c-3.7,3.7-8.1,6.4-13.2,8.4
		c-5.2,1.9-10.9,2.5-17.1,1.8c-6.2-0.8-11.2-2.6-15-5.7c-3.8-3-6.5-6.6-8.2-10.7c-1.7-4.1-2.3-8.5-2-13c0.4-4.6,1.6-8.8,3.7-12.7
		c2.1-3.9,4.9-7.1,8.6-9.6s8-3.8,12.9-3.8c3.3,0,6,0.7,8.1,2c2.1,1.3,3.7,2.9,4.8,4.9c1.1,1.9,1.7,4,1.7,6.3c0,2.3-0.4,4.4-1.3,6.3
		c-0.9,1.9-2.3,3.5-4.2,4.9c-1.8,1.3-4.1,1.9-6.8,1.8c1-1.6,1.4-3.2,1.3-4.7c-0.2-1.5-0.7-2.8-1.6-4s-2-2-3.5-2.6
		c-1.4-0.6-3-0.9-4.7-0.7c-2.6,0.1-4.8,1-6.6,2.7c-1.8,1.7-3.1,3.9-4,6.4c-0.9,2.6-1.2,5.3-1.1,8.3c0.2,3,0.9,5.8,2.3,8.5
		c1.4,2.7,3.4,5,6,6.9c2.6,1.9,5.9,3.2,10,3.7c4.1,0.5,7.9,0,11.3-1.5c3.4-1.5,6.4-3.7,8.9-6.6c2.5-2.9,4.5-6.2,5.9-9.9
		c1.4-3.7,2.1-7.6,2-11.5c0-3.9-0.9-7.7-2.6-11.4c-1.7-3.7-4.3-6.9-7.9-9.6c-3.6-2.8-6.5-5.9-8.6-9.3c-2.1-3.4-3.4-6.8-4-10.3
		c-0.6-3.5-0.4-6.9,0.4-10.2c0.9-3.3,2.5-6.3,4.8-8.8c2.3-2.6,5.3-4.6,9.1-6.2c3.7-1.6,8.1-2.3,13.2-2.3c4.1,0,7.6,0.8,10.3,2.4
		c2.8,1.6,4.9,3.6,6.3,6c1.4,2.4,2.2,5,2.4,7.8c0.2,2.8-0.3,5.4-1.5,7.8c-1.2,2.4-3,4.5-5.4,6c-2.4,1.6-5.5,2.4-9.2,2.4
		c-2.4,0-4.3-0.5-5.9-1.4c-1.6-0.9-2.7-2.1-3.5-3.4c-0.8-1.3-1.1-2.8-1.1-4.2C341.5,22,341.9,20.7,342.8,19.7z"/>
	<path d="M391.4,15l-11.1,37.3c1.7-2.4,3.5-4.4,5.5-6c2-1.6,4.1-2.3,6.2-2.3c2.8,0,4.5,1,5,2.9c0.6,1.9,0.6,4.3,0.1,7.2
		c-0.5,2.9-1.4,6-2.7,9.4S392,70,391,72.8c-1.1,2.9-1.7,5.2-2.1,7.2c-0.3,1.9,0.1,2.9,1.4,2.9c0.9,0,2.1-0.4,3.4-1.1
		c1.3-0.8,2.6-2.2,3.7-4.4h2c-1,2.6-2.2,4.8-3.6,6.6c-1.4,1.8-2.8,3.3-4.2,4.4c-1.4,1.1-2.8,2-4.2,2.5s-2.6,0.8-3.7,0.8
		c-2.2,0-3.8-0.5-4.7-1.6c-1-1.1-1.5-2.6-1.6-4.4c-0.1-1.8,0.1-3.9,0.6-6.2c0.5-2.3,1.2-4.7,2-7.1c0.8-2.4,1.6-4.8,2.5-7.1
		c0.9-2.3,1.6-4.4,2.2-6.2c0.6-1.8,0.9-3.3,1.1-4.4c0.1-1.1-0.1-1.6-0.8-1.6c-0.8,0-1.5,0.5-2.3,1.6c-0.8,1.1-1.6,2.4-2.5,4
		c-0.8,1.6-1.6,3.3-2.3,5c-0.7,1.8-1.4,3.4-2,4.9L368.6,92h-11.3l22.8-77H391.4z"/>
	<path d="M422.8,44c3.2,0,5.7,0.6,7.4,1.8c1.8,1.2,3,2.9,3.7,5c0.7,2.1,0.8,4.7,0.5,7.6c-0.3,2.9-1,6-1.9,9.3
		c-1,3.3-2.4,6.4-4.2,9.3c-1.8,2.9-3.7,5.4-5.9,7.6c-2.1,2.1-4.4,3.8-6.7,5c-2.4,1.2-4.7,1.8-6.9,1.8c-3.2,0-5.7-0.6-7.4-1.8
		c-1.8-1.2-3-2.9-3.7-5c-0.7-2.1-0.8-4.7-0.5-7.6c0.3-2.9,1-6,1.9-9.3c0.9-3.3,2.2-6.4,4-9.3c1.7-2.9,3.7-5.4,5.8-7.6
		c2.1-2.1,4.4-3.8,6.8-5C418.1,44.6,420.4,44,422.8,44z M410.8,86.1c1,0,2.1-0.9,3.2-2.6c1.1-1.8,2.2-4,3.3-6.7
		c1.1-2.7,2.1-5.6,3-8.6c0.9-3.1,1.5-5.9,2-8.6c0.4-2.7,0.5-4.9,0.4-6.7c-0.2-1.8-0.8-2.6-1.9-2.6c-1.1,0-2.2,0.9-3.4,2.6
		c-1.2,1.8-2.3,4-3.3,6.7c-1.1,2.7-2,5.6-2.8,8.6c-0.8,3.1-1.4,5.9-1.8,8.6c-0.4,2.7-0.5,4.9-0.3,6.7
		C409.3,85.2,409.9,86.1,410.8,86.1z"/>
	<path d="M487.8,62.6c3.6,2.4,6,5.2,7.1,8.5c1.1,3.3,1.2,6.5,0.3,9.5c-0.9,3-2.9,5.6-5.8,7.7c-2.9,2.1-6.7,3.2-11.3,3.2
		c-3.2,0-6-1-8.3-3c-2.4-2-3.7-4.4-4.2-7.1c-2.3,2.6-4.9,4.9-8,6.9c-3.1,2-6.5,3-10.4,3c-3.9,0-7-1.2-9.1-3.5
		c-2.1-2.3-3.4-5.3-3.9-8.8c-0.5-3.5-0.2-7.3,0.8-11.4c1-4.1,2.7-7.9,5.1-11.4c2.4-3.5,5.4-6.4,9-8.8c3.6-2.4,7.8-3.5,12.5-3.5
		c2.8,0,4.8,0.8,6.2,2.4c1.3,1.6,2,3.5,2.1,5.9c0,2.3-0.5,4.8-1.6,7.5c-1.1,2.7-2.7,5.1-4.7,7.3c-2.1,2.2-4.5,3.9-7.4,5.2
		c-2.9,1.3-6.1,1.7-9.6,1.3c-0.3,3.2,0,5.9,0.8,8.1c0.8,2.2,2.3,3.3,4.7,3.3c2.9,0,5.5-0.9,8-2.6c2.5-1.8,4.7-3.7,6.6-5.9
		c1.1-2.6,2.7-4.2,4.8-4.9c2.1-0.7,4.1-0.7,6.1,0c2,0.7,3.5,1.9,4.7,3.7c1.1,1.8,1.3,3.8,0.4,6c-1.6-1.5-3-2-4.3-1.6
		c-1.3,0.5-2.2,1.3-2.8,2.4c-0.5,1.1-0.6,2.3-0.3,3.6s1.4,2,3.2,2.3c2,0.3,3.7-0.2,5-1.4c1.3-1.2,2.1-2.7,2.5-4.5
		c0.4-1.8,0.2-3.7-0.4-5.7c-0.7-2-1.9-3.6-3.8-5c-3.3-2.3-5.6-5-6.9-8.1c-1.3-3.1-1.6-6.2-0.9-9c0.7-2.9,2.4-5.3,5.1-7.3
		c2.7-2,6.4-3,11.1-3c4.1,0,7.3,1.1,9.4,3.1c2.2,2.1,2.9,4.8,2,8.2c-0.8,2.5-2.1,4.3-4,5.2c-1.9,1-3.8,1.3-5.7,0.9
		c-1.8-0.3-3.4-1.2-4.5-2.7c-1.2-1.5-1.3-3.4-0.4-5.7c1.8,1.3,3.3,1.7,4.5,1.3c1.2-0.4,2-1.1,2.5-2.1c0.4-1,0.4-2-0.2-3
		c-0.5-1-1.7-1.5-3.6-1.5c-1.7,0-3.1,0.5-4.3,1.6c-1.2,1.1-2,2.4-2.3,3.9c-0.4,1.6-0.3,3.2,0.4,5S485.8,61.3,487.8,62.6z
		 M458.9,47.5c-1.1,0-2.2,0.7-3.5,2c-1.2,1.3-2.4,3.1-3.5,5.2c-1.1,2.1-2.1,4.5-3,7.1c-0.9,2.6-1.6,5.2-2.1,7.7
		c1.4,0.5,2.8,0.3,4.2-0.6c1.4-0.9,2.7-2.1,3.8-3.8c1.2-1.6,2.2-3.5,3.1-5.5c0.9-2,1.5-3.9,1.9-5.7c0.4-1.8,0.5-3.3,0.4-4.5
		C460.3,48.1,459.8,47.5,458.9,47.5z"/>
</g>
</svg>
