<?xml version="1.0" encoding="utf-8"?>
<!-- Generator: Adobe Illustrator 18.0.0, SVG Export Plug-In . SVG Version: 6.00 Build 0)  -->
<!DOCTYPE svg PUBLIC "-//W3C//DTD SVG 1.1//EN" "http://www.w3.org/Graphics/SVG/1.1/DTD/svg11.dtd">
<svg version="1.1" id="Layer_1" xmlns="http://www.w3.org/2000/svg" xmlns:xlink="http://www.w3.org/1999/xlink" x="0px" y="0px"
	 viewBox="0 148.7 595.3 483.3" enable-background="new 0 148.7 595.3 483.3" xml:space="preserve">
<g>
	<path fill="#FF6600" d="M137.6,439.6c0,82.4-13.6,119.7-31.4,138.4c-16.1,17-29.7,24.6-51,31.4c-11,3.4-20.4,4.2-29.7-5.1
		C11,588.2,0,533,0,486.3c0-17.8,5.1-25.5,11-31.4c7.6-7.6,17.8-11.9,27.2-14.4c7.6-2.5,11.9,0.8,11.9,10.2
		c-1.7,70.5,9.3,134.2,22.1,129.9c14.4-5.1,20.4-62.8,17.8-156.3c-1.7-54.3-8.5-118-12.7-152.9c-0.8-8.5,1.7-13.6,6.8-17
		c5.9-4.2,18.7-10.2,27.2-12.7c5.1-1.7,14.4-4.2,16.1,9.3C134.2,290.2,137.6,363.2,137.6,439.6z"/>
	<path fill="#FF6600" d="M188.5,533c-1.7,18.7-3.4,37.4-5.1,53.5c-0.8,16.1-6.8,34-20.4,42.5c-15.3,8.5-16.1-2.5-15.3-10.2
		c11.9-81.5,38.2-259,51-355.8c1.7-14.4,0.8-23.8,14.4-29.7c10.2-4.2,17.8-7.6,29.7-11.9c8.5-2.5,15.3,1.7,16.1,11
		c9.3,96.8,22.1,242.9,34,336.3c0.8,10.2-0.8,18.7-9.3,25.5c-7.6,5.9-13.6,10.2-22.9,14.4c-6.8,3.4-12.7,2.5-14.4-10.2
		c-2.5-26.3-5.1-53.5-7.6-79.8C221.6,522.8,205.5,527.9,188.5,533z M236.9,488.9c-5.9-63.7-11-127.4-16.1-179.2
		c-10.2,57.7-20.4,129.1-28,192.8C206.4,498.2,221.6,493.1,236.9,488.9z"/>
	<path fill="#FF6600" d="M439,552.6c-20.4,27.2-51.8,45-73,49.3c-10.2,1.7-23.8,4.2-33.1-5.1c-26.3-27.2-30.6-112.1-29.7-172.4
		c0.8-42.5,4.2-106.1,17.8-151.2c6.8-22.9,18.7-37.4,48.4-46.7c28.9-10.2,45.9-8.5,53.5,13.6c13.6,35.7,18.7,101.9,13.6,180.9
		c-0.8,13.6-5.9,18.7-11.9,21.2c-5.9,4.2-12.7,5.9-19.5,9.3c-10.2,4.2-17,0.8-16.1-11.9c4.2-94.3-1.7-187.7-11.9-183.4
		c-11,4.2-20.4,75.6-22.1,160.5c-0.8,84.9,8.5,153.7,23.8,153.7c9.3,0,15.3-11.9,21.2-18.7c7.6-9.3,18.7-17,30.6-17.8
		C443.3,534.7,446.7,541.5,439,552.6z"/>
	<path fill="#FF6600" d="M507.8,578.9c0.8,11.9-3.4,16.1-8.5,20.4c-6.8,4.2-11.9,7.6-22.9,11.9c-7.6,3.4-13.6,0.8-13.6-8.5
		c-3.4-95.1-6.8-219.9-3.4-322.7c0.8-10.2,0.8-17,10.2-22.9c9.3-5.9,16.1-10.2,22.9-12.7c9.3-4.2,17-2.5,17,9.3
		c-2.5,60.3-4.2,121.4-4.2,180.9c22.9-75.6,52.6-172.4,66.2-213.1c1.7-7.6,7.6-17.8,17.8-2.5c9.3,14.4,5.1,31.4,0,46.7
		c-20.4,53.5-39.1,110.4-62,181.7c21.2,37.4,42.5,70.5,61.1,101.9c7.6,10.2,6.8,19.5,3.4,26.3c-3.4,6.8-6.8,11.9-14.4,17
		c-7.6,5.1-14.4,5.1-18.7-2.5c-16.1-28-34-60.3-53.5-92.6C506.1,526.2,507,553.4,507.8,578.9z"/>
</g>
<g>
	<path d="M77.6,154.3c0-2.9,2.3-5.1,5.1-5.1c2.9,0,5.1,2.3,5.1,5.1v37.1c0,2.9-2.3,5.1-5.1,5.1c-2.9,0-5.1-2.3-5.1-5.1V154.3z"/>
	<path d="M99.4,154.4c0-2.9,2.3-5.1,5.1-5.1h1.1c2.5,0,3.9,1.2,5.3,3l19.7,25.9v-24c0-2.8,2.3-5.1,5.1-5.1c2.8,0,5.1,2.3,5.1,5.1v37
		c0,2.9-2.3,5.1-5.1,5.1h-0.3c-2.5,0-3.9-1.2-5.3-3l-20.5-26.9v24.9c0,2.8-2.3,5.1-5.1,5.1c-2.8,0-5.1-2.3-5.1-5.1V154.4z"/>
	<path d="M151.1,191.2c-1.1-0.8-1.9-2.3-1.9-3.9c0-2.7,2.1-4.7,4.8-4.7c1.3,0,2.3,0.5,2.9,0.9c3.5,2.6,7.4,4.2,11.9,4.2
		c4.2,0,6.7-1.7,6.7-4.4v-0.1c0-2.6-1.6-3.9-9.4-5.9c-9.4-2.4-15.4-5-15.4-14.2v-0.1c0-8.4,6.8-14,16.3-14c5.7,0,10.6,1.5,14.8,4.1
		c1.1,0.7,2.3,2.1,2.3,4.1c0,2.7-2.1,4.7-4.8,4.7c-1,0-1.8-0.3-2.6-0.7c-3.4-2-6.6-3.1-9.8-3.1c-3.9,0-6,1.8-6,4.1v0.1
		c0,3.1,2,4.1,10,6.1c9.4,2.5,14.8,5.9,14.8,14v0.1c0,9.2-7,14.4-17.1,14.4C162.4,196.7,156.3,194.9,151.1,191.2z"/>
	<path d="M193.9,176.1v-21.9c0-2.9,2.3-5.1,5.1-5.1c2.9,0,5.1,2.3,5.1,5.1v21.6c0,7.6,3.8,11.5,10,11.5c6.2,0,10-3.8,10-11.2v-21.9
		c0-2.9,2.3-5.1,5.1-5.1s5.1,2.3,5.1,5.1v21.5c0,14.1-7.9,21-20.4,21C201.5,196.8,193.9,189.8,193.9,176.1z"/>
	<path d="M244.9,154.7c0-2.9,2.3-5.1,5.1-5.1h16.2c5.9,0,10.5,1.7,13.6,4.7c2.6,2.6,4,6.3,4,10.6v0.1c0,7.3-3.7,11.8-9.3,14.2
		l7.1,8.6c1,1.3,1.7,2.3,1.7,3.9c0,2.9-2.4,4.7-4.9,4.7c-2.3,0-3.9-1.1-5.1-2.7l-10-12.6h-8.2v10.2c0,2.9-2.3,5.1-5.1,5.1
		c-2.9,0-5.1-2.3-5.1-5.1V154.7z M265.5,172.1c5,0,7.8-2.7,7.8-6.6v-0.1c0-4.4-3.1-6.7-8-6.7h-10.2v13.4H265.5z"/>
	<path d="M290.4,189.5l16.2-36.6c1.1-2.5,3.2-4.1,6-4.1h0.6c2.8,0,4.8,1.5,5.9,4.1l16.2,36.6c0.3,0.7,0.5,1.4,0.5,2.1
		c0,2.7-2.1,4.9-4.9,4.9c-2.4,0-4-1.4-4.9-3.5l-3.1-7.3h-20.5l-3.3,7.6c-0.9,2-2.6,3.2-4.7,3.2c-2.7,0-4.7-2.1-4.7-4.8
		C289.8,191,290.1,190.2,290.4,189.5z M319.2,176.6l-6.5-15.4l-6.4,15.4H319.2z"/>
	<path d="M343.9,154.4c0-2.9,2.3-5.1,5.1-5.1h1.1c2.5,0,3.9,1.2,5.3,3l19.7,25.9v-24c0-2.8,2.3-5.1,5.1-5.1c2.8,0,5.1,2.3,5.1,5.1
		v37c0,2.9-2.3,5.1-5.1,5.1h-0.3c-2.5,0-3.9-1.2-5.3-3l-20.5-26.9v24.9c0,2.8-2.3,5.1-5.1,5.1c-2.8,0-5.1-2.3-5.1-5.1V154.4z"/>
	<path d="M394.4,172.9v-0.1c0-13.2,10-24.1,24.3-24.1c7,0,11.7,1.9,15.6,4.7c1.1,0.8,2,2.3,2,4.1c0,2.8-2.3,5-5.1,5
		c-1.4,0-2.3-0.5-3.1-1c-2.9-2.1-5.9-3.3-9.5-3.3c-7.8,0-13.5,6.5-13.5,14.5v0.1c0,8,5.5,14.6,13.5,14.6c4.3,0,7.2-1.3,10.1-3.7
		c0.8-0.7,1.9-1.1,3.1-1.1c2.6,0,4.8,2.1,4.8,4.7c0,1.6-0.8,2.9-1.7,3.7c-4.2,3.7-9.1,5.9-16.6,5.9
		C404.6,196.9,394.4,186.3,394.4,172.9z"/>
	<path d="M445.6,191v-36.3c0-2.9,2.3-5.1,5.1-5.1h25.8c2.5,0,4.6,2.1,4.6,4.6c0,2.5-2.1,4.5-4.6,4.5h-20.7v9.4h17.8
		c2.5,0,4.6,2.1,4.6,4.6c0,2.5-2.1,4.5-4.6,4.5h-17.8v9.8h21.1c2.5,0,4.6,2.1,4.6,4.6c0,2.5-2.1,4.5-4.6,4.5h-26.1
		C447.9,196.1,445.6,193.8,445.6,191z"/>
	<path d="M510.1,154.7c0-2.9,2.3-5.1,5.1-5.1h16.5c5.3,0,9.5,1.5,12.2,4.1c2.1,2.1,3.2,4.7,3.2,7.9v0.1c0,5.3-2.8,8.2-6.1,10
		c5.4,2.1,8.7,5.2,8.7,11.4v0.1c0,8.5-6.9,12.8-17.4,12.8h-17c-2.9,0-5.1-2.3-5.1-5.1V154.7z M529.6,168.4c4.5,0,7.4-1.5,7.4-4.9
		v-0.1c0-3.1-2.4-4.8-6.7-4.8h-10.1v9.8H529.6z M532.3,187.1c4.5,0,7.2-1.6,7.2-5.1v-0.1c0-3.1-2.3-5.1-7.6-5.1h-11.8v10.2H532.3z"
		/>
	<path d="M568.7,178.1l-15-20.4c-0.7-1-1.3-2.2-1.3-3.7c0-2.7,2.3-4.9,5.1-4.9c2.3,0,3.8,1.3,5.1,3.1l11.3,16.3l11.5-16.4
		c1.3-1.9,2.8-3.1,4.9-3.1c3.1,0,5,2.2,5,5c0,1.4-0.7,2.7-1.3,3.6l-15,20.3v13.4c0,2.9-2.3,5.1-5.1,5.1c-2.9,0-5.1-2.3-5.1-5.1
		V178.1z"/>
</g>
</svg>
