<?xml version="1.0" encoding="utf-8"?>
<!-- Generator: Adobe Illustrator 16.0.0, SVG Export Plug-In . SVG Version: 6.00 Build 0)  -->
<!DOCTYPE svg PUBLIC "-//W3C//DTD SVG 1.1//EN" "http://www.w3.org/Graphics/SVG/1.1/DTD/svg11.dtd">
<svg version="1.1" id="Layer_1" xmlns="http://www.w3.org/2000/svg" xmlns:xlink="http://www.w3.org/1999/xlink" x="0px" y="0px"
	 width="982.803px" height="227.818px" viewBox="0 0 982.803 227.818" enable-background="new 0 0 982.803 227.818"
	 xml:space="preserve">
<g>
	<g>
		<path fill="#323A45" d="M112.838,56.419c-31.159,0-56.418,25.259-56.418,56.418c0,31.16,25.259,56.419,56.418,56.419
			c31.16,0,56.419-25.26,56.419-56.419C169.257,81.679,143.998,56.419,112.838,56.419z M112.838,141.047
			c-15.58,0-28.209-12.629-28.209-28.209c0-15.58,12.629-28.209,28.209-28.209c15.581,0,28.21,12.629,28.21,28.209
			C141.048,128.418,128.418,141.047,112.838,141.047z"/>
		<g>
			<defs>
				<rect id="SVGID_1_" x="56.419" y="112.838" width="28.209" height="114.98"/>
			</defs>
			<clipPath id="SVGID_2_">
				<use xlink:href="#SVGID_1_"  overflow="visible"/>
			</clipPath>
			<path clip-path="url(#SVGID_2_)" fill="#323A45" d="M112.838,0C50.519,0,0,50.52,0,112.838
				c0,62.319,50.519,112.838,112.838,112.838s112.838-50.52,112.838-112.838C225.676,50.52,175.157,0,112.838,0z M112.838,197.466
				c-46.739,0-84.628-37.889-84.628-84.628c0-46.739,37.889-84.628,84.628-84.628c46.74,0,84.629,37.889,84.629,84.628
				C197.467,159.578,159.578,197.466,112.838,197.466z"/>
		</g>
		<path fill="#E72E46" d="M112.838,0C50.519,0,0,50.52,0,112.838c0,41.765,22.692,78.229,56.419,97.74v-34.667
			c-17.312-15.495-28.209-38.01-28.209-63.073c0-46.739,37.889-84.628,84.628-84.628c46.74,0,84.629,37.889,84.629,84.628
			c0,46.74-37.889,84.628-84.629,84.628v28.21c62.319,0,112.838-50.52,112.838-112.838C225.676,50.52,175.157,0,112.838,0z"/>
		<rect x="56.419" y="112.838" fill="#323A45" width="28.209" height="95.208"/>
	</g>
	<g>
		<path fill="#323A45" d="M268.47,144.598V25.724h55.605c25.842,0,39.922,17.466,39.922,38.318c0,20.674-14.258,38.14-39.922,38.14
			h-30.298v42.417H268.47z M338.155,64.042c0-9.98-7.664-16.04-17.644-16.04h-26.733v31.902h26.733
			C330.492,79.903,338.155,73.844,338.155,64.042z"/>
		<path fill="#323A45" d="M382.894,144.598V58.517h22.634v11.584c6.238-7.485,16.753-13.723,27.446-13.723v22.1
			c-1.604-0.356-3.564-0.535-6.238-0.535c-7.485,0-17.466,4.277-21.208,9.802v56.853H382.894z"/>
		<path fill="#323A45" d="M445.094,101.468c0-24.417,17.109-45.09,45.447-45.09c28.516,0,45.625,20.674,45.625,45.09
			c0,24.417-17.109,45.269-45.625,45.269C462.203,146.737,445.094,125.885,445.094,101.468z M512.641,101.468
			c0-13.367-7.842-24.951-22.1-24.951c-14.08,0-21.922,11.584-21.922,24.951c0,13.545,7.842,25.13,21.922,25.13
			C504.799,126.598,512.641,115.013,512.641,101.468z"/>
		<path fill="#323A45" d="M561.834,144.598V78.299h-14.258V58.517h14.258v-3.564c0-20.139,12.297-31.011,28.871-31.011
			c6.594,0,12.297,1.426,16.396,3.564l-4.633,16.753c-1.783-1.248-4.277-1.782-7.309-1.782c-6.416,0-10.693,4.099-10.693,12.476
			v3.564h17.467v19.783h-17.467v66.299H561.834z M612.805,35.704c0-7.485,6.061-13.367,13.367-13.367
			c7.484,0,13.545,5.881,13.545,13.367s-6.061,13.545-13.545,13.545C618.865,49.249,612.805,43.189,612.805,35.704z
			 M614.943,144.598V58.517h22.635v86.082H614.943z"/>
		<path fill="#323A45" d="M668.234,123.034V78.299h-14.258V58.517h14.258V34.991h22.635v23.525h17.465v19.783h-17.465v38.674
			c0,5.525,2.852,9.625,7.842,9.625c3.385,0,6.594-1.248,7.842-2.674l4.811,17.288c-3.385,3.029-9.445,5.524-18.891,5.524
			C676.611,146.737,668.234,138.539,668.234,123.034z"/>
		<path fill="#323A45" d="M721.881,101.468c0-24.951,18.535-45.09,44.557-45.09c25.842,0,43.129,19.248,43.129,47.229v5.347h-63.982
			c1.605,10.516,10.16,19.248,24.773,19.248c7.307,0,17.287-3.029,22.812-8.377l10.158,14.971
			c-8.555,7.843-22.1,11.941-35.465,11.941C741.664,146.737,721.881,129.092,721.881,101.468z M766.438,74.913
			c-14.08,0-20.141,9.802-21.031,18.357h42.418C787.111,85.072,781.408,74.913,766.438,74.913z"/>
		<path fill="#323A45" d="M829.531,144.598V58.517h22.635v11.584c6.236-7.485,16.752-13.723,27.445-13.723v22.1
			c-1.604-0.356-3.564-0.535-6.238-0.535c-7.484,0-17.465,4.277-21.207,9.802v56.853H829.531z"/>
		<path fill="#323A45" d="M891.73,101.468c0-24.417,17.109-45.09,45.447-45.09c28.516,0,45.625,20.674,45.625,45.09
			c0,24.417-17.109,45.269-45.625,45.269C908.84,146.737,891.73,125.885,891.73,101.468z M959.277,101.468
			c0-13.367-7.842-24.951-22.1-24.951c-14.08,0-21.922,11.584-21.922,24.951c0,13.545,7.842,25.13,21.922,25.13
			C951.436,126.598,959.277,115.013,959.277,101.468z"/>
	</g>
	<g>
		<path fill="#323A45" d="M268.345,194.736c0-12.603,9.271-20.904,20.783-20.904c7.21,0,12.179,3.151,15.693,7.514l-3.999,2.545
			c-2.545-3.272-6.847-5.574-11.694-5.574c-8.847,0-15.572,6.726-15.572,16.42c0,9.574,6.726,16.421,15.572,16.421
			c4.847,0,8.847-2.303,10.907-4.362v-8.181h-13.937v-4.483h18.905v14.542c-3.757,4.241-9.271,7.029-15.875,7.029
			C277.615,215.702,268.345,207.279,268.345,194.736z"/>
		<path fill="#323A45" d="M316.03,214.914v-40.415h4.544v40.415H316.03z"/>
		<path fill="#323A45" d="M330.996,200.25c0-8.483,5.575-15.33,14.482-15.33s14.481,6.847,14.481,15.33
			c0,8.482-5.574,15.391-14.481,15.391S330.996,208.733,330.996,200.25z M355.173,200.25c0-5.938-3.454-11.271-9.695-11.271
			c-6.241,0-9.695,5.332-9.695,11.271c0,5.998,3.454,11.33,9.695,11.33C351.719,211.581,355.173,206.249,355.173,200.25z"/>
		<path fill="#323A45" d="M370.38,214.914v-40.415h4.544v15.572c2.363-3.212,5.938-5.15,9.876-5.15
			c7.695,0,13.027,5.998,13.027,15.391c0,9.513-5.393,15.33-13.027,15.33c-4.12,0-7.695-2.121-9.876-5.09v4.362H370.38z
			 M383.711,211.581c5.877,0,9.392-4.786,9.392-11.27s-3.514-11.331-9.392-11.331c-3.636,0-7.21,2.182-8.786,4.727v13.27
			C376.5,209.521,380.075,211.581,383.711,211.581z"/>
		<path fill="#323A45" d="M426.549,214.914v-3.333c-2.363,2.666-5.756,4.061-9.695,4.061c-4.908,0-10.179-3.333-10.179-9.695
			c0-6.604,5.211-9.634,10.179-9.634c4,0,7.332,1.272,9.695,3.938v-5.271c0-3.878-3.151-6.12-7.392-6.12
			c-3.515,0-6.362,1.212-8.968,4.06l-2.121-3.15c3.151-3.272,6.907-4.848,11.694-4.848c6.241,0,11.331,2.787,11.331,9.876v20.117
			H426.549z M426.549,208.733v-5.574c-1.757-2.363-4.847-3.575-7.998-3.575c-4.302,0-7.271,2.666-7.271,6.362
			c0,3.757,2.969,6.423,7.271,6.423C421.702,212.369,424.792,211.157,426.549,208.733z"/>
		<path fill="#323A45" d="M443.273,214.914v-40.415h4.544v40.415H443.273z"/>
		<path fill="#323A45" d="M477.203,194.736c0-11.937,8.119-20.904,20.057-20.904c11.936,0,20.115,8.968,20.115,20.904
			c0,11.938-8.18,20.905-20.115,20.905C485.322,215.641,477.203,206.673,477.203,194.736z M512.164,194.736
			c0-9.452-5.877-16.42-14.904-16.42c-9.089,0-14.846,6.968-14.846,16.42c0,9.393,5.756,16.421,14.846,16.421
			C506.287,211.157,512.164,204.128,512.164,194.736z"/>
		<path fill="#323A45" d="M547.854,214.914v-19.147c0-5.211-2.666-6.786-6.604-6.786c-3.576,0-6.908,2.182-8.666,4.544v21.39h-4.543
			v-29.267h4.543v4.242c2.061-2.484,6.061-4.969,10.482-4.969c6.061,0,9.271,3.09,9.271,9.452v20.541H547.854z"/>
		<path fill="#323A45" d="M564.516,214.914v-40.415h4.545v40.415H564.516z"/>
		<path fill="#323A45" d="M580.391,178.437c0-1.697,1.393-3.091,3.09-3.091s3.029,1.394,3.029,3.091
			c0,1.696-1.332,3.029-3.029,3.029S580.391,180.133,580.391,178.437z M581.178,214.914v-29.267h4.545v29.267H581.178z"/>
		<path fill="#323A45" d="M617.654,214.914v-19.147c0-5.211-2.666-6.786-6.605-6.786c-3.574,0-6.908,2.182-8.664,4.544v21.39h-4.545
			v-29.267h4.545v4.242c2.061-2.484,6.059-4.969,10.482-4.969c6.059,0,9.27,3.09,9.27,9.452v20.541H617.654z"/>
		<path fill="#323A45" d="M632.619,200.25c0-8.483,6.059-15.33,14.42-15.33c8.848,0,14.059,6.907,14.059,15.693v1.151h-23.631
			c0.363,5.514,4.18,10.119,10.482,10.119c3.393,0,6.725-1.333,9.088-3.757l2.182,2.969c-2.969,2.908-6.908,4.545-11.633,4.545
			C638.859,215.641,632.619,209.4,632.619,200.25z M646.979,188.677c-6.24,0-9.33,5.271-9.572,9.694h19.207
			C656.553,194.07,653.645,188.677,646.979,188.677z"/>
		<path fill="#323A45" d="M690.363,214.914v-40.415h5.029v40.415H690.363z"/>
		<path fill="#323A45" d="M727.506,214.914v-19.147c0-5.211-2.666-6.786-6.605-6.786c-3.574,0-6.908,2.182-8.664,4.544v21.39h-4.545
			v-29.267h4.545v4.242c2.061-2.484,6.059-4.969,10.482-4.969c6.059,0,9.27,3.09,9.27,9.452v20.541H727.506z"/>
		<path fill="#323A45" d="M741.684,211.036l2.301-3.272c1.939,2.242,5.637,4.182,9.635,4.182c4.484,0,6.969-2.121,6.969-5.029
			c0-7.09-18.117-2.727-18.117-13.573c0-4.604,3.877-8.422,10.846-8.422c5.029,0,8.543,1.878,10.846,4.241l-2.121,3.151
			c-1.756-2.121-4.906-3.696-8.725-3.696c-4,0-6.482,1.999-6.482,4.604c0,6.362,18.117,2.182,18.117,13.573
			c0,4.908-3.939,8.847-11.453,8.847C748.65,215.641,744.652,214.125,741.684,211.036z"/>
		<path fill="#323A45" d="M774.584,178.437c0-1.697,1.395-3.091,3.09-3.091c1.697,0,3.031,1.394,3.031,3.091
			c0,1.696-1.334,3.029-3.031,3.029C775.979,181.466,774.584,180.133,774.584,178.437z M775.373,214.914v-29.267h4.543v29.267
			H775.373z"/>
		<path fill="#323A45" d="M791.973,222.367l2.303-3.272c2.424,2.848,5.332,3.938,9.514,3.938c4.848,0,9.453-2.363,9.453-8.543
			v-4.424c-2.182,2.97-5.758,5.211-9.877,5.211c-7.635,0-13.027-5.695-13.027-15.147c0-9.393,5.332-15.209,13.027-15.209
			c3.938,0,7.514,1.938,9.877,5.15v-4.424h4.543v28.843c0,9.271-6.846,12.3-13.996,12.3
			C798.881,226.79,795.488,225.82,791.973,222.367z M813.242,206.491v-12.845c-1.637-2.484-5.15-4.666-8.727-4.666
			c-5.938,0-9.451,4.666-9.451,11.149c0,6.423,3.514,11.088,9.451,11.088C808.092,211.217,811.605,209.036,813.242,206.491z"/>
		<path fill="#323A45" d="M849.719,214.914v-19.269c0-5.211-2.605-6.665-6.605-6.665c-3.514,0-6.908,2.182-8.604,4.544v21.39h-4.545
			v-40.415h4.545v15.391c2-2.484,5.998-4.969,10.422-4.969c6.119,0,9.33,2.969,9.33,9.331v20.662H849.719z"/>
		<path fill="#323A45" d="M867.289,208.793v-19.147h-4.848v-3.999h4.848v-7.998h4.605v7.998h5.938v3.999h-5.938v18.179
			c0,2.181,0.969,3.756,2.908,3.756c1.332,0,2.484-0.605,3.09-1.272l1.332,3.454c-1.15,1.091-2.787,1.879-5.393,1.879
			C869.471,215.641,867.289,213.157,867.289,208.793z"/>
		<path fill="#323A45" d="M884.738,211.036l2.303-3.272c1.939,2.242,5.635,4.182,9.635,4.182c4.482,0,6.967-2.121,6.967-5.029
			c0-7.09-18.117-2.727-18.117-13.573c0-4.604,3.879-8.422,10.848-8.422c5.027,0,8.543,1.878,10.846,4.241l-2.121,3.151
			c-1.758-2.121-4.908-3.696-8.725-3.696c-4,0-6.484,1.999-6.484,4.604c0,6.362,18.117,2.182,18.117,13.573
			c0,4.908-3.938,8.847-11.451,8.847C891.707,215.641,887.707,214.125,884.738,211.036z"/>
	</g>
	<g>
		<path fill="#323A45" d="M918.285,186.207v-10.641h-3.787v-1.328h9.08v1.328h-3.805v10.641H918.285z"/>
		<path fill="#323A45" d="M936.68,186.207V176.14l-4.057,10.066h-0.609l-4.074-10.066v10.066h-1.488v-11.969h2.135l3.732,9.224
			l3.715-9.224h2.135v11.969H936.68z"/>
	</g>
</g>
</svg>
